<?xml version="1.0" standalone="no"?>
<!DOCTYPE svg PUBLIC "-//W3C//DTD SVG 1.1//EN" "http://www.w3.org/Graphics/SVG/1.1/DTD/svg11.dtd" >
<svg xmlns="http://www.w3.org/2000/svg">
<metadata>Generated by IcoMoon</metadata>
<defs>
<font id="CaGov" horiz-adv-x="512">
<font-face units-per-em="512" ascent="480" descent="-32" />
<missing-glyph horiz-adv-x="512" />
<glyph unicode="&#x20;" d="" horiz-adv-x="256" />
<glyph unicode="&#xe600;" d="M318.212 262.371c1.373 4.506 4.892 16.508 10.541 36.025 1.373 5.121 4.875 15.258 10.524 30.429 5.632 15.663 10.137 28.211 13.516 37.661-9.925-6.67-19.993-15.505-30.217-26.486-36.5-39.351-78.896-86.921-93.907-111.876 5.738 1.408 17.159 13.411 53.553 25.887 23.213 7.955 35.99 8.359 35.99 8.359v0zM311.736 237.258c-115.097 0-165.306-183.485-245.117-183.485-18.091 0-32.118 8.13-42.008 24.392-6.336 10.384-9.521 22.245-9.521 35.567 0 33.455 15.804 75.675 47.429 126.641 26.961 43.381 55.383 78.298 85.302 104.784 25.887 22.773 48.045 34.142 66.471 34.142 10.383 0 18.356-3.713 23.934-11.157 4.488-5.878 6.74-13.005 6.74-21.382 0-15.029-5.034-32.154-15.065-51.389-8.799-16.578-19.781-31.467-32.91-44.63-8.659-8.518-15.452-12.794-20.397-12.794-3.256 0-6.247 1.619-9.046 4.875-2.006 2.34-3.010 4.963-3.010 7.901 0 5.438 4.717 11.632 14.149 18.602 13.305 9.925 23.882 20.784 31.766 32.558 11.597 17.053 17.388 31.467 17.388 43.258 0 4.787-1.038 8.359-3.133 10.683s-5.227 3.467-9.415 3.467c-8.518 0-20.591-6.195-36.236-18.602-17.81-13.939-36.623-32.928-56.439-56.95-25.237-30.534-44.419-60.593-57.584-90.212-13.621-30.675-20.432-56.88-20.432-78.596 0-10.384 3.010-19.218 9.046-26.505 6.635-8.219 14.765-12.671 24.339-12.302 36.465 1.337 81.922 84.58 95.949 103.921 139.154 192.056 149.749 192.566 170.832 212.542 12.231 11.774 21.63 17.669 28.123 17.669 4.048 0 7.533-1.636 10.489-4.875 2.481-2.939 3.714-6.194 3.714-9.767 0-4.33-2.164-11.932-6.494-22.773-7.427-19.060-14.537-39.422-21.348-61.121-5.878-19.218-9.838-33.948-11.844-44.173 2.798 0 4.663 0.070 5.562 0.246 4.488 0.141 8.202 0.228 11.139 0.228 8.975 0 13.463-3.397 13.463-10.225 0-2.939-0.969-5.843-2.886-8.711-1.936-2.869-4.118-4.628-6.599-5.245-0.933-0.317-3.467-0.458-7.637-0.458-8.8 0-15.363-0.546-19.675-1.619-1.637-4.875-5.861-46.25-12.143-47.658-19.411-16.86-17.969 37.661-16.895 43.152v0zM197.607 111.743c5.069 0 9.398-1.777 12.97-5.332s5.368-7.884 5.368-12.953c0-5.086-1.795-9.433-5.368-13.024s-7.92-5.385-12.97-5.385c-5.086 0-9.398 1.795-12.988 5.385s-5.386 7.938-5.386 13.024c0 5.069 1.795 9.397 5.386 12.953 3.59 3.572 7.901 5.332 12.988 5.332v0zM309.87 160.404l-12.83-12.741c-8.13 8.589-17.599 12.882-28.404 12.882-9.45 0-17.353-3.115-23.706-9.363-6.371-6.247-9.556-13.851-9.556-22.791 0-9.257 3.309-17.089 9.908-23.512s14.748-9.644 24.445-9.644c6.283 0 11.598 1.32 15.926 3.978s7.796 6.81 10.471 12.46h-27.771v17.106h48.238l0.123-4.030c0-8.394-2.182-16.349-6.512-23.846-4.365-7.515-9.996-13.252-16.913-17.212s-15.029-5.931-24.357-5.931c-9.943 0-18.849 2.164-26.644 6.476-7.814 4.329-13.991 10.489-18.531 18.479-4.541 8.007-6.828 16.63-6.828 25.887 0 12.706 4.207 23.741 12.601 33.121 9.961 11.175 22.931 16.754 38.893 16.754 8.377 0 16.173-1.549 23.442-4.646 6.125-2.623 12.125-7.092 18.003-13.428v0zM368.861 178.46c13.569 0 25.236-4.91 34.986-14.748 9.767-9.82 14.642-21.77 14.642-35.902 0-13.991-4.805-25.835-14.431-35.532-9.644-9.697-21.312-14.537-35.057-14.537-14.396 0-26.363 4.962-35.867 14.942-9.521 9.925-14.29 21.752-14.29 35.462 0 9.169 2.2 17.599 6.652 25.289 4.435 7.709 10.541 13.779 18.286 18.286s16.121 6.74 25.078 6.74v0zM368.597 160.562c-8.852 0-16.279-3.079-22.298-9.239s-9.046-14.026-9.046-23.53c0-10.612 3.801-18.99 11.369-25.166 5.896-4.822 12.654-7.233 20.274-7.233 8.623 0 15.962 3.133 22.034 9.38 6.054 6.247 9.116 13.974 9.116 23.125 0 9.134-3.062 16.842-9.169 23.159s-13.516 9.503-22.281 9.503v0zM418.842 176.067h18.76l24.093-68.125 24.603 68.125h18.69l-34.599-95.914h-17.616l-33.93 95.914z" />
<glyph unicode="&#xe601;" d="M435.646 222.225c0-6.193-5.038-11.248-11.248-11.248-2.89 0-5.467 1.156-7.416 2.94l-161.412 161.412-0.231-0.231-0.049 0.033-161.231-161.214c-1.966-1.767-4.542-2.923-7.415-2.923-6.21 0-11.248 5.054-11.248 11.248 0 3.121 1.255 5.929 3.32 7.961v0l168.845 168.861c2.048 2.048 4.856 3.303 7.961 3.303 3.089 0 5.913-1.255 7.928-3.303l168.877-168.877c2.081-2.015 3.32-4.822 3.32-7.961zM390.623 189.622v-124.961c0-12.453-10.075-22.528-22.528-22.528h-78.798v112.541h-67.567v-112.558h-78.782c-12.453 0-22.528 10.075-22.528 22.528v124.961l135.102 135.118 135.102-135.102z" />
<glyph unicode="&#xe602;" d="M464.016 328.96c0-17.664-13.312-32-29.712-32h-356.608c-16.416 0-29.712 14.336-29.712 32v4c0 17.664 13.312 32 29.712 32h356.592c16.4 0 29.712-14.336 29.712-32v-4zM464.016 218.96c0-17.664-13.312-32-29.712-32h-356.608c-16.416 0-29.712 14.336-29.712 32v4c0 17.664 13.312 32 29.712 32h356.592c16.4 0 29.712-14.336 29.712-32v-4zM464.016 108.96c0-17.664-13.312-32-29.712-32h-356.608c-16.416 0-29.712 14.336-29.712 32v4c0 17.664 13.312 32 29.712 32h356.592c16.4 0 29.712-14.336 29.712-32v-4z" />
<glyph unicode="&#xe603;" d="M177.216 314.896c0-12.384-10.048-22.432-22.432-22.432h-42.080c-12.4 0-22.432 10.048-22.432 22.432v42.080c0 12.384 10.032 22.432 22.432 22.432h42.080c12.384 0 22.432-10.048 22.432-22.432v-42.080zM297.008 314.896c0-12.384-10.048-22.432-22.432-22.432h-42.080c-12.384 0-22.432 10.048-22.432 22.432v42.080c0 12.384 10.048 22.432 22.432 22.432h42.080c12.384 0 22.432-10.048 22.432-22.432v-42.080zM416.784 314.896c0-12.384-10.032-22.432-22.432-22.432h-42.080c-12.384 0-22.432 10.048-22.432 22.432v42.080c0 12.384 10.048 22.432 22.432 22.432h42.080c12.4 0 22.432-10.048 22.432-22.432v-42.080zM177.216 197.936c0-12.384-10.048-22.432-22.432-22.432h-42.080c-12.4 0-22.432 10.048-22.432 22.432v42.064c0 12.384 10.032 22.432 22.432 22.432h42.080c12.384 0 22.432-10.048 22.432-22.432v-42.064zM297.008 197.936c0-12.384-10.048-22.432-22.432-22.432h-42.080c-12.384 0-22.432 10.048-22.432 22.432v42.064c0 12.384 10.048 22.432 22.432 22.432h42.080c12.384 0 22.432-10.048 22.432-22.432v-42.064zM416.784 197.936c0-12.384-10.032-22.432-22.432-22.432h-42.080c-12.384 0-22.432 10.048-22.432 22.432v42.064c0 12.384 10.048 22.432 22.432 22.432h42.080c12.4 0 22.432-10.048 22.432-22.432v-42.064zM177.216 80.944c0-12.384-10.048-22.432-22.432-22.432h-42.080c-12.4 0-22.432 10.048-22.432 22.432v42.080c0 12.384 10.032 22.432 22.432 22.432h42.080c12.384 0 22.432-10.048 22.432-22.432v-42.080zM297.008 80.944c0-12.384-10.048-22.432-22.432-22.432h-42.080c-12.384 0-22.432 10.048-22.432 22.432v42.080c0 12.384 10.048 22.432 22.432 22.432h42.080c12.384 0 22.432-10.048 22.432-22.432v-42.080zM416.784 80.944c0-12.384-10.032-22.432-22.432-22.432h-42.080c-12.384 0-22.432 10.048-22.432 22.432v42.080c0 12.384 10.048 22.432 22.432 22.432h42.080c12.4 0 22.432-10.048 22.432-22.432v-42.080z" />
<glyph unicode="&#xe604;" d="M450.046 100.884l-13.041 10.823 0.070 0.070-41.392 33.438-58.428 48.362c11.985 21.435 18.162 45.194 18.162 69.269 0 36.007-13.815 71.997-41.639 99.769-27.155 27.172-63.127 40.425-99.733 40.425-75.781 0-140.175-64.412-140.175-140.192 0-76.414 63.162-140.79 139.524-140.79 28.387 0 56.756 8.518 81.026 25.078l60.1-49.787 41.181-33.262-0.035-0.035 14.149-11.721c6.934-5.773 17.212-4.787 22.896 2.13l19.517 23.53c5.738 6.899 4.717 17.159-2.182 22.896zM275.869 201.603c-17-17.036-39.123-25.236-61.825-25.236-46.127 0-85.882 39.14-85.882 86.481 0 46.11 39.14 85.883 85.882 85.883 47.974 0 87.061-39.158 87.061-85.883 0-22.086-8.8-44.191-25.236-61.244z" />
<glyph unicode="&#xe605;" d="M432.579 109.817c27.372 16.473 44.386 39.411 44.386 64.809 0 28.882-22.048 54.569-56.331 71.178-21.526-54.607-100.426-95.239-194.234-95.239-13.608 0-27.062 0.93-40.321 2.613 15.679-39.702 73.887-69.183 143.343-69.183 16.647 0 32.715 1.704 47.658 4.839 48.084-37.786 104.725-11.575 104.725-11.575-38.716-2.303-47.852 17.441-49.226 32.559zM410.705 283.106c0 62.37-84.322 113.125-187.981 113.125s-187.981-50.755-187.981-113.125c0-30.12 19.687-58.518 55.459-80.004l3.271-1.974-0.387-3.755c-1.316-14.673-8.401-37.418-37.999-45.548 7.666-1.375 16.473-2.342 25.919-2.342 28.398 0 53.737 8.594 75.34 25.553l2.227 1.723 2.73-0.543c4.433-0.949 9.021-1.647 13.55-2.362 0.019-0.212 0.019-0.426 0.038-0.619 14.595-2.111 29.5-3.252 44.599-3.252 89.974 0 165.507 37.69 185.851 88.27 0.212-0.096 0.445-0.155 0.658-0.251 3.039 8.091 4.704 16.453 4.704 25.107zM233.526 315.201c16.88 0 30.507-13.628 30.507-30.507s-13.627-30.507-30.507-30.507-30.507 13.627-30.507 30.507 13.627 30.507 30.507 30.507zM122.897 284.692c0 16.88 13.646 30.507 30.507 30.507s30.546-13.627 30.546-30.507-13.686-30.507-30.546-30.507-30.507 13.627-30.507 30.507zM313.666 254.186c-7.219 0-13.55 2.846-18.777 6.988-1.007 0.794-1.858 1.781-2.768 2.73v0c-5.401 5.401-9.040 12.505-9.040 20.789 0 16.88 13.686 30.507 30.566 30.507 16.841 0 30.507-13.628 30.507-30.507 0-6.678-2.575-12.505-6.194-17.518-5.555-7.685-14.132-12.989-24.293-12.989z" />
<glyph unicode="&#xe606;" d="M119.257 189.547c-0.262-0.788 1.501-2.588 1.501-2.588v-8.139c0 0-3.394-8.101 0-9.301 0 0 32.536 7.445 133.649 7.445 101.133 0 133.649-7.445 133.649-7.445 3.432 1.2 0 9.301 0 9.301v8.139c0 0 1.819 1.8 1.538 2.588-0.319 0.788 11.646 5.964 1.762 9.133-9.863 3.207-45.719 11.12-136.951 11.12s-127.049-7.914-136.932-11.12c-9.864-3.169 2.063-8.344 1.781-9.133zM227.028 372.797c0 0-3.301-3.038 0-4.594v-6.563c0 0 17.702 3 27.379 3 9.695 0 27.397-3 27.397-3v6.563c3.301 1.556 0 4.594 0 4.594s-2.063 2.438-3.695 3.357v22.878c0 0 0.806 3.375 0 5.195-0.825 1.856 11.12 5.813 0 10.070-11.139 4.294-15.678 4.894-23.703 4.894-8.045 0-12.565-0.6-23.684-4.894s0.825-8.214 0-10.070c-0.806-1.837 0-5.195 0-5.195v-22.878c-1.632-0.919-3.695-3.357-3.695-3.357zM273.459 433.48c0 0-2.063 6.282-5.776 6.507 0 0-4.745 3.375-4.538 7.801 0 0 1.425 0.581 1.425 3.15l-4.107 5.008h-11.214l-4.125-5.026c0-2.57 1.463-3.151 1.463-3.151 0.206-4.426-4.538-7.801-4.538-7.801-3.676-0.225-5.757-6.507-5.757-6.507v-3.713h37.149v3.732zM254.65 328.203c1.275-0.075 45.138-2.738 45.138 0.019 0 2.869-1.257 5.007-1.875 9.077-0.637 4.089 0 5.663 0 5.663s-8.907 8.701-43.056 8.701h-0.45c-34.149 0-43.037-8.701-43.037-8.701s0.637-1.575 0-5.663c-0.6-4.089-1.856-6.207-1.856-9.077 0-2.757 43.825-0.075 45.138-0.019zM255.738 228.814l130.311-6.094c0 0 0.957 17.384-4.294 19.202-2.25 0.75-5.663 3.976-14.553 7.689-0.413 0.975-0.975 1.8-1.819 2.119-2.887 1.107-14.009 68.053-110.996 68.053s-108.109-66.947-110.978-68.053c-1.219-0.45-1.875-1.95-2.269-3.506-6.638-3.113-9.47-5.663-11.421-6.32-5.269-1.838-4.313-19.202-4.313-19.202l130.331 6.113zM414.591 46.858l-0.993 45.156c0 0 3.301 7.2 1.2 12.377 0 0 9.469 7.238 4.125 14.834l-6.994 4.388 0.432 8.382c0 0-38.687 25.991-157.953 26.422-119.266-0.432-157.972-26.422-157.972-26.422l0.431-8.382-7.032-4.388c-5.326-7.595 4.144-14.834 4.144-14.834-2.082-5.175 1.257-12.377 1.257-12.377l-1.088-47.594c-9.714-9.733 2.794-23.853 2.794-23.853h317.519c0.037-0.019 15.058 16.709 0.131 26.291zM395.106 108.179v-56.033c-5.57 1.012-12.077 1.969-19.091 2.944v53.089h19.091zM356.42 108.179v-50.613c-6.245 0.712-12.658 1.406-19.091 2.063v48.551h19.091zM318.634 108.179v-46.694c-6.601 0.618-12.976 1.2-19.072 1.744v44.95h19.072zM280.866 108.179v-43.375c-8.007 0.637-14.683 1.182-19.091 1.5v41.856h19.091zM243.079 108.179v-42.381c-5.156-0.394-11.664-0.919-19.053-1.538v43.919h19.053zM205.331 108.179v-45.55c-6.171-0.544-12.546-1.163-19.090-1.781v47.313h19.090zM167.563 108.179v-49.226c-6.526-0.693-12.883-1.443-19.090-2.195v51.419h19.090zM131.351 108.179v-53.651c-7.595-1.106-14.29-2.195-19.877-3.339v56.99h19.877z" />
<glyph unicode="&#xe607;" d="M218.955 426.113c1.238-42.944 3.61-86.569 4.518-129.389 50.989-46.595 109.218-93.625 163.445-141.21 7.796-6.849 18.997-13.985 23.082-20.585 3.774-6.084 3.548-14.788 6.229-20.152 2.207-4.414 6.457-5.548 9.962-9.034 2.784-14.315-11.283-18.956-7.693-33.847-2.867-1.197-1.856-4.62-4.188-6.147 2.97-5.177 1.609-6.827 0.392-10.788 1.981-6.084 8.375-4.579 9.797-11.592-1.836-4.434-9.962-5.238-10.582-10.375-26.464-4.353-53.424-9.385-80.031-13.923-1.341 7.55-7.054 7.591-9.406 13.387 10.065 17.223-11.736 25.7-21.327 32.817-2.805 0.887-7.94-2.249-10.623-1.217-2.538 4.579 2.125 4.95 0.062 9.22-8.849 7.322-14.666 1.815-24.010 5.301-8.91 3.279-16.564 14.541-25.412 16.646-2.454 0.558-4.188-0.97-6.457-0.928-9.385 0.288-17.946 4.25-27 7.034-5.281 9.715-3.424 29.289-14.253 31.332-0.226 17.966-21.019 16.191-21.534 33.581-6.827 6.518-14.851 10.87-17.492 24.628 2.103 3.053 4.992 0.165 8.025 1.3 1.403 12.067-8.291 14.521-15.738 15.037-4.208 9.178-14.418 25.473-8.004 33.044 6.724 0.97 6.972-9.24 12.706-10.025 9.364-10.127 0.226 5.693-0.475 11.201 0.763 2.805 7.735 8.808 8.209 11.489-1.939 5.404-14.727 0.721-16.419 6.579-3.857-11.82-18.026-8.994-24.029-7.054-1.609 4.434 4.621 4.372 4.579 7.94-4.188 7.673-10.602 11.407-15.594 17.574 1.403 8.375-6.641 10.231-9.303 15.904-4.723 10.231 1.712 21.906-5.816 31.126 6.951 14.376-14.191 12.334-13.82 29.722 4.414 8.251 7.343 17.368 10.54 26.257-1.156 3.094 0.186 4.743-1.403 8.085 8.169 8.251 0.722 25.556 1.547 38.098 43.377 1.177 86.054 1.114 127.513-1.031z" />
<glyph unicode="&#xe608;" d="M335.488 123.808c0 0-31.056 49.872-53.136 41.904-23.936-8.592-38.4-23.36-53.68-13.008-8.608 5.84-20.864 19.008-33.040 38.432l-0.016-0.032c-10.368 17.408-18.848 35.952-20.448 46.048-2.96 18.24 16.576 25.040 34.512 43.088 16.576 16.64-15.424 65.92-15.424 65.92s-18.176 35.456-39.36 29.648c-21.232-5.808-46.048-12.608-46.048-12.608s-52.16-15.584-8.080-110.064c21.376-45.76 32.816-68.784 46.896-90.192l0.080 0.032c11.2-18.672 31.744-45.92 63.904-84.384 66.88-79.984 103.056-39.328 103.056-39.328s16.672 19.6 30.944 36.336c14.256 16.704-10.16 48.208-10.16 48.208zM315.504 198.928c9.296 45.248-19.456 89.488-64.272 98.704l6.992 33.984c63.392-13.024 104.080-75.552 90.912-139.6l-33.632 6.912zM264.96 209.072c3.824 18.688-7.184 32.352-23.2 35.648l5.392 26.752c30.64-6.32 50.336-36.528 43.952-67.504l-26.144 5.104zM379.856 185.712c16.624 80.848-34.704 159.728-114.704 176.208l7.52 36.576c100-20.56 164.192-119.152 143.408-220.256l-36.224 7.472z" />
<glyph unicode="&#xe609;" d="M435.931 310.663c-1.056 16.244-13.921 29.108-30.164 30.181-0.704 0.035-1.39 0.211-2.094 0.211v-0.211l-295.925 0.211c-0.704 0-1.391-0.176-2.094-0.211-16.454-1.091-29.443-14.238-30.235-30.745-0.017-0.493-0.159-1.021-0.159-1.531s0.141-1.004 0.159-1.496v-210.447h360.495v209.867c0.053 0.704 0.228 1.373 0.228 2.077 0 0.721-0.159 1.39-0.211 2.095zM376.869 308.78l-121.203-103.199-121.168 103.199h242.371zM107.501 276.116c0.088 0 0.176-0.018 0.263-0.018v13.322l79.565-67.738-79.828-75.147v129.581zM123.815 128.691l80.269 79.882 51.6-45.106 51.917 45.405 79.846-80.198h-263.631zM403.884 146.554l-79.846 75.147 79.618 67.791v-13.375c0.087 0 0.159 0.018 0.228 0.018v-129.581z" />
<glyph unicode="&#xe60a;" d="M337.562 362.294v-38.121c0-15.532-12.634-28.131-28.13-28.131-15.531 0-28.147 12.599-28.147 28.131v38.121h-53.5v-38.121c0-15.532-12.599-28.131-28.131-28.131s-28.131 12.599-28.131 28.131v38.121h-88.961v-304.51h348.019v304.51h-93.019zM390.481 99.468h-267.822v170.012h267.822v-170.012zM199.636 317.029c8.337 0 15.123 6.751 15.123 15.123v75.526c0 8.354-6.768 15.123-15.123 15.123s-15.123-6.752-15.123-15.123v-75.543c0.017-8.337 6.768-15.106 15.123-15.106zM309.431 317.063c8.32 0 15.072 6.769 15.072 15.106v75.476c0 8.337-6.752 15.106-15.072 15.106-8.354 0-15.106-6.752-15.106-15.106v-75.476c0-8.337 6.752-15.106 15.106-15.106zM155.394 242.815h47.959v-47.941h-47.959v47.941zM155.394 176.223h47.959v-47.959h-47.959v47.959zM224.067 242.815h47.959v-47.941h-47.959v47.941zM292.672 242.815h47.959v-47.941h-47.959v47.941z" />
<glyph unicode="&#xe60b;" d="M67.948 238.757c0-2.71 0-8.132-4.058-6.768-1.364 0-5.422 1.347-6.444 2.694 1.023 1.364-2.694 6.445 1.023 7.792 2.711-1.347 8.132-1.347 9.479-3.716v0zM454.549 153.445c-0.324 0.204-0.461 0.273-0.563 0.29 0.324-0.307 0.563-0.426 0.563-0.29zM504.315 163.947c-15.923 32.836-14.56 57.557-11.849 90.393-4.058 27.415-22.351 51.113-41.974 72.1-26.409 27.415-69.406 28.779-104.954 18.293-56.193-6.445-103.572 55.17-158.418 15.906-25.061-23.698-47.396-48.743-76.174-62.962-9.138-4.041-19.623 6.445-28.779 3.733-9.138-1.347-10.502-11.508-13.196-16.93-3.734 0-3.734 6.445-9.138 4.058-10.502-2.693-9.138-13.196-9.138-22.334-3.733-6.769-12.871-10.502-15.582-17.288 0-19.623-23.698-24.704-32.836-40.627-2.711-2.37 1.347-5.063 1.347-7.774 6.444-10.485 20.988-14.219 32.853-12.872l-4.075-1.364c-4.058-4.058 1.347-9.138 5.404-11.849 5.081-4.058 14.219-1.347 20.646 0 10.502 5.081 14.56-6.752 23.715-4.058 9.138 2.711 20.971 10.502 31.49 4.058 5.404-5.404 20.97-5.404 16.912-15.906-6.427-11.525-12.855-24.721-20.971-35.206-11.525-14.56-30.142-11.849-41.633-25.044-1.347-2.387 0-6.445 0-9.155 3.716-2.693 1.023-3.716 12.855-5.063 11.849-1.364 57.898-1.364 68.383 1.347 2.387 1.023 3.733 2.37 3.733 2.37 16.929 17.27 27.415 35.547 46.032 52.476 10.502 2.693 10.502-10.502 19.641-15.582 0-19.623-26.409-11.832-32.836-30.125-1.364-2.711-1.364-4.058 1.347-6.769 10.485-2.37 20.988 0 31.489 0 12.855 0 27.398 1.347 37.917 1.347 13.196 6.769 32.836 47.396 22.351 73.464 10.485 5.098 23.357 2.711 35.206 2.711l1.347-1.347c1.347-11.849 13.196-22.351 10.485-36.894-3.716-20.646-31.49-14.219-36.57-33.859 0-2.693 0-5.404 1.364-6.752 15.565-5.081 33.842-1.023 51.113-1.023 10.485 0 20.988-1.347 27.414 6.428 10.485 27.414 16.913 51.113 37.917 73.464 2.711 0 6.769 1.364 6.769-1.347 12.854-11.849 24.704-16.93 39.264-26.409 2.37-3.733 1.364-5.081 0-7.791-14.56-14.219-36.894-18.276-40.627-35.189-1.347-4.058 0-4.058 2.387-5.421 19.623-3.716 41.974 0 61.598-1.347 11.849 1.347 18.635 11.849 26.409 20.988 5.081 9.138 12.872 19.623 12.872 32.836l-11.508 22.317zM271.052 119.245c-4.058-7.791-13.196-23.357-23.698-22.351-2.71 0-30.143-2.37-39.263-2.37-9.155 0-10.502 0-11.849 1.347 0 1.023 4.058 5.081 6.428 6.428 1.347 1.364 14.56 4.075 19.623 6.445 5.422 4.058 5.422 17.271 2.71 18.276-2.71 2.693-7.792 10.485-7.792 10.485s16.929 2.711 18.293 5.404c1.347 2.711 13.179 5.081 14.56 5.081 2.369 1.364 11.508 2.711 14.219 2.711 2.693-1.347 11.832 0 11.832 0s0 0 1.364-6.428c0.017-6.735-4.058-17.236-6.428-25.027zM420.349 184.917c-10.485-4.041-25.045-15.906-26.409-22.351-2.37-2.693-14.219-20.971-15.565-28.779-4.058-6.752-2.711-4.058-11.849-28.779-2.711-5.404-1.347-9.138-13.196-13.196-16.93 0-26.050 0-44.361-1.347-2.693 0-7.774 1.347-7.774 2.693 5.081 14.219 26.067 6.445 32.495 22.351 17.271 22.010-10.485 37.934-10.485 61.615 0 19.623 10.485 36.57 18.618 52.135 0 2.71-1.364 1.364-4.058 1.364-6.445-2.387-6.445-6.445-11.849-12.871-2.693-6.768-2.693-5.421-7.774-14.56-1.364-4.058-5.421 9.121-6.445 9.121 0 2.711-5.404-11.832-4.058-19.623 0-2.693-7.774 9.138-10.485 6.445 1.347-2.387 6.428-14.236 15.565-22.010-36.57 0-53.483-2.711-66.695 6.428-14.56 23.698-1.347-9.138-25.044-22.351-11.508-7.774-18.276-10.485-27.415-16.913-15.565-9.138-33.842-46.032-44.362-49.766-14.56-5.421-68.383-2.711-68.383-2.711 0 9.138 19.641 13.196 31.49 19.623 9.138 10.485 30.142 43.339 31.489 47.072l20.988 39.604c2.71 3.716 9.138 24.704 5.081 24.704 0 0-6.428-9.138-7.792-11.849-5.081-6.428-9.138-12.854-16.912-16.913 0 6.428 7.774 10.485 4.041 22.351-5.405-5.421-14.56-23.715-14.56-23.715-2.694-5.081-5.405-6.428-9.138-10.485l2.71 19.623c0 1.364-1.364 1.364-4.058 1.364-5.081-13.196-13.196-15.582-28.779-23.715-11.849-6.428-19.641 6.769-31.489 0-6.444-1.347-14.56-5.081-18.276 0 5.081 4.058 16.913 5.404 16.913 15.923l-5.081 1.347c-11.831-2.693-27.756-9.138-38.24 1.364-2.369 1.023-3.733 3.716-3.733 6.428 11.849 13.196 32.495 20.97 32.495 40.627 13.196 15.565 34.201 24.704 35.547 45.708 2.71 2.711 9.138 1.347 13.196 1.347 11.849-3.733 19.623-16.929 22.351-28.779 1.023-1.364 2.37 0 3.734 0 1.347 0-3.734 20.971-3.734 22.351 3.734 1.347 10.161 7.792 16.929 11.832 9.138 6.445 13.179 10.502 15.566 12.872 13.196 11.849 19.623 18.618 23.698 22.351l18.276 15.906 14.56 7.792c6.428 2.71 15.566 5.081 18.26 5.081 36.587-1.023 62.962-48.402 116.461-31.132 41.974 12.855 78.868 11.508 104.936-15.923 18.276-19.623 37.917-45.708 39.281-66.695 0-9.121-3.733-8.132-14.219-6.751-7.791 2.71-4.058-2.369-4.058-5.081-5.098-11.849-7.791-17.27-11.849-20.987-7.791-14.56-18.276-20.971-23.357-23.698-2.693-2.711-8.115-3.733-13.196-6.445zM493.813 108.76c0 0-8.132-9.138-10.485-10.485-4.058-2.387-23.698-1.364-31.49-2.387-7.791 0-28.779-2.711-28.779 0 0 6.428 21.993 16.93 27.414 18.276 4.058 0 13.179 6.428 15.565 9.138 6.769 6.428 0 16.93 0 16.93s-13.298 13.588-12.070 13.486c-2.864 2.421-15.991 18.685-9.94 24.431 26.067 26.409 27.414 30.125 32.495 47.379 2.711 5.098 6.769 0 6.769 0s-1.347-20.97 3.733-39.263c4.041-11.849 13.179-31.49 14.56-32.836 2.711-2.711 7.791-13.196 7.791-14.56 0-2.37-1.364-10.485-3.733-14.219-1.33-4.041-11.832-15.889-11.832-15.889z" horiz-adv-x="520" />
<glyph unicode="&#xe60c;" d="M256.016 463.104c-135.584 0-245.536-109.936-245.536-245.504 0-135.6 109.952-245.504 245.536-245.504 135.568 0 245.472 109.904 245.472 245.504 0 135.568-109.904 245.504-245.472 245.504zM255.984-4.688c-120.448 0-218.496 99.728-218.496 222.288s98.048 222.288 218.496 222.288c120.496 0 218.496-99.728 218.496-222.288s-98-222.288-218.496-222.288zM256 302.928c-46.32 0-84-37.68-84-84s37.68-84 84-84 84 37.68 84 84-37.68 84-84 84zM257.472 196.704c-1.248-2.4-4.080-7.216-7.312-6.912-0.848 0-9.312-0.752-12.144-0.752-2.816 0-3.232 0-3.664 0.432 0 0.32 1.248 1.568 1.984 1.968 0.416 0.432 4.496 1.28 6.064 2 1.664 1.248 1.664 5.344 0.848 5.664-0.848 0.816-2.4 3.216-2.4 3.216s5.232 0.848 5.648 1.68c0.416 0.848 4.080 1.568 4.496 1.568 0.736 0.432 3.568 0.848 4.384 0.848 0.848-0.4 3.664 0 3.664 0s0 0 0.4-2c0.016-2.080-1.232-5.296-1.968-7.712zM331.088 202.768c0-0.752-0.416-3.248-1.152-4.4-0.4-1.248-3.664-4.912-3.664-4.912s-2.512-2.816-3.232-3.248c-1.264-0.72-7.328-0.4-9.728-0.72-2.4 0-8.896-0.848-8.896 0 0 1.968 6.8 5.216 8.464 5.632 1.264 0 4.080 2 4.816 2.848 2.096 1.968 0 5.216 0 5.216s-4.816 4.912-3.552 4.096c0-0.432-5.344 5.632-3.248 7.632 8.064 8.16 8.464 9.312 10.048 14.624 0.832 1.6 2.096 0 2.096 0s-0.416-6.464 1.136-12.128c1.264-3.664 4.080-9.712 4.496-10.128 0.864-0.848 2.416-4.096 2.416-4.512zM319.792 234.336c-2.4 0.848-1.248-0.72-1.248-1.568-1.584-3.664-2.4-5.312-3.664-6.464-2.4-4.496-5.664-6.496-7.216-7.344-0.848-0.816-2.512-1.12-4.080-1.968-3.248-1.248-7.728-4.912-8.16-6.912-0.736-0.848-4.384-6.464-4.816-8.88-1.264-2.096-0.848-1.28-3.664-8.912-0.832-1.664-0.4-2.816-4.064-4.064-5.232 0-8.064 0-13.696-0.432-0.848 0-2.4 0.432-2.4 0.848 1.568 4.4 8.048 2 10.032 6.912 5.344 6.784-3.232 11.712-3.232 19.024 0 6.064 3.232 11.28 5.744 16.096 0 0.848-0.416 0.432-1.248 0.432-2-0.752-2-2-3.664-3.968-0.832-2.096-0.832-1.68-2.384-4.496-0.416-1.28-1.68 2.816-2 2.816 0 0.848-1.664-3.664-1.248-6.064 0-0.848-2.4 2.816-3.248 1.968 0.416-0.72 2-4.368 4.816-6.784-11.28 0-16.512-0.848-20.592 1.968-4.496 7.344-0.416-2.816-7.728-6.88-3.568-2.4-5.664-3.248-8.48-5.248-4.8-2.816-10.448-14.224-13.68-15.376-4.496-1.664-21.12-0.816-21.12-0.816 0 2.816 6.064 4.064 9.712 6.064 2.832 3.216 9.312 13.376 9.728 14.528l6.48 12.224c0.832 1.152 2.816 7.664 1.568 7.664 0 0-1.984-2.848-2.4-3.664-1.568-2-2.832-4-5.232-5.248 0 2 2.4 3.248 1.264 6.912-1.664-1.664-4.496-7.312-4.496-7.312-0.848-1.568-1.664-2-2.832-3.248l0.848 6.064c0 0.432-0.416 0.432-1.264 0.432-1.568-4.096-4.080-4.816-8.896-7.344-3.664-1.968-6.064 2.096-9.712 0-1.984-0.4-4.496-1.568-5.648 0 1.568 1.248 5.216 1.68 5.216 4.944l-1.568 0.4c-3.664-0.848-8.576-2.816-11.808 0.4-0.736 0.32-1.152 1.152-1.152 2 3.664 4.096 10.032 6.464 10.032 12.56 4.096 4.816 10.56 7.632 10.992 14.096 0.848 0.848 2.832 0.432 4.080 0.432 3.664-1.152 6.064-5.248 6.912-8.912 0.32-0.4 0.736 0 1.152 0 0.4 0-1.152 6.496-1.152 6.912 1.152 0.432 3.136 2.4 5.232 3.664 2.816 2 4.080 3.248 4.8 3.968 4.096 3.68 6.080 5.744 7.328 6.912l5.648 4.944 4.496 2.4c1.984 0.816 4.816 1.568 5.664 1.568 11.296-0.32 19.456-14.976 35.968-9.632 12.976 3.968 24.368 3.568 32.416-4.912 5.648-6.064 11.696-14.128 12.128-20.624-0.064-2.8-1.216-2.48-4.464-2.080zM255.984 415.888c-107.232 0-194.48-88.976-194.48-198.288s87.248-198.288 194.48-198.288c107.248 0 194.496 88.976 194.496 198.288s-87.248 198.288-194.496 198.288zM386.864 113.552l-87.744 14.784-43.12-77.808-43.104 77.808-87.744-14.784 33.984 82.224-66.304 59.376 85.488 24.72 5.056 88.816 72.624-51.424 72.624 51.408 5.056-88.816 85.488-24.72-66.304-59.376 34-82.208z" />
<glyph unicode="&#xe60d;" d="M256.016 463.104c-135.584 0-245.536-109.936-245.536-245.504 0-135.6 109.952-245.504 245.536-245.504 135.568 0 245.472 109.904 245.472 245.504 0 135.568-109.904 245.504-245.472 245.504zM255.984-4.688c-120.448 0-218.496 99.728-218.496 222.288s98.048 222.288 218.496 222.288c120.496 0 218.496-99.728 218.496-222.288s-98-222.288-218.496-222.288zM289.024 231.136h97.648l-48.816 110.48zM119.936 212.256h97.648l-48.816 110.704zM255.984 415.888c-107.232 0-194.48-88.976-194.48-198.288s87.248-198.288 194.48-198.288c107.248 0 194.496 88.976 194.496 198.288s-87.248 198.288-194.496 198.288zM337.856 171.136c-33.552 0-60.816 26.704-61.84 60h0.080l54.976 111.696-66.592-7.328v-225.040h52.24c4.832 0 8.72-3.888 8.72-8.72 0-1.024-0.256-1.984-0.592-2.912h19.088c5.232 0 9.472-5.184 9.472-11.6v-5.792c0-6.432-4.24-11.632-9.472-11.632h-182.16c-5.216 0-9.456 5.184-9.456 11.632v5.792c0 6.4 4.24 11.6 9.456 11.6h19.088c-0.336 0.928-0.576 1.872-0.576 2.912 0 4.832 3.872 8.72 8.688 8.72h52.272v222.48l-66.496-7.328 0.48-0.992 55.28-112.384h0.080c-1.024-33.296-28.304-59.984-61.824-59.984-33.568 0-60.816 26.688-61.84 59.984h0.064l58.8 119.456 0.416 0.208c0.992 1.632 2.976 2.896 5.504 3.168l69.552 7.648v16.56c-6.496 3.936-10.896 11.008-10.896 19.184 0 12.384 10.064 22.48 22.496 22.48 12.4 0 22.496-10.096 22.496-22.48 0-8.176-4.384-15.232-10.896-19.184v-13.984l69.872 7.68c2.832 0.304 5.344-0.704 6.512-2.384l3.472-7.088 55.296-112.368h0.064c-1.024-33.296-28.272-60-61.824-60z" />
<glyph unicode="&#xe60e;" d="M256.016 463.104c-135.584 0-245.536-109.936-245.536-245.504 0-135.6 109.952-245.504 245.536-245.504 135.568 0 245.472 109.904 245.472 245.504 0 135.568-109.904 245.504-245.472 245.504zM255.984-4.688c-120.448 0-218.496 99.728-218.496 222.288s98.048 222.288 218.496 222.288c120.496 0 218.496-99.728 218.496-222.288s-98-222.288-218.496-222.288zM251.808 259.312c-19.264 0-36.336-27.328-36.336-59.312 0-14.912 6.832-22.992 17.696-22.992 14.288 0 27.008 11.504 31.664 31.056l7.136 29.504c-1.536 13.984-8.976 21.744-20.16 21.744zM255.984 415.888c-107.232 0-194.48-88.976-194.48-198.288s87.248-198.288 194.48-198.288c107.248 0 194.496 88.976 194.496 198.288s-87.248 198.288-194.496 198.288zM353.968 164.592c-14.592-11.488-31.984-17.072-49.68-17.072-22.048 0-33.536 7.456-35.392 23.296-11.808-15.84-24.848-22.992-43.792-22.992-34.464 0-52.176 17.696-52.176 53.104 0 50.304 33.232 87.264 75.776 87.264 15.216 0 26.704-5.904 33.536-16.784l7.456 12.416h36.656l-23.616-95.008c-0.32-1.568-0.624-3.104-0.624-4.656 0-4.672 2.48-7.472 7.136-7.472 24.24 0 50.624 31.376 50.624 71.744 0 46.896-37.264 79.808-96.576 79.808-29.184 0-54.336-7.472-74.528-21.44-31.056-21.728-48.768-55.6-48.768-93.776 0-59.312 43.168-97.52 111.504-97.52 32.592 0 62.4 9.632 88.816 28.272l17.392-24.224c-32.928-24.544-68.336-36.336-109.632-36.336-38.512 0-72.992 11.504-98.432 31.984-29.808 23.92-45.024 56.224-45.024 96.896 0 35.712 11.488 67.696 33.216 93.488 30.128 35.696 74.24 55.584 124.848 55.584 78.88 0 131.36-46.576 131.36-112.112-0.016-34.768-14.304-64.576-40.080-84.464z" />
<glyph unicode="&#xe60f;" d="M256.016 463.104c-135.584 0-245.536-109.936-245.536-245.504 0-135.6 109.952-245.504 245.536-245.504 135.568 0 245.472 109.904 245.472 245.504 0 135.568-109.904 245.504-245.472 245.504zM255.984-4.688c-120.448 0-218.496 99.728-218.496 222.288s98.048 222.288 218.496 222.288c120.496 0 218.496-99.728 218.496-222.288s-98-222.288-218.496-222.288zM97.872 332.608c-22.8-32.464-36.368-72.112-36.368-115.008s13.584-82.528 36.368-115.008v230.016zM330.144 368.368l83.984-83.44v-182.336c22.8 32.48 36.352 72.128 36.352 115.008 0 109.312-87.248 198.288-194.496 198.288-48.048 0-92-17.968-125.984-47.52h200.144zM392.32 265.12l-80.992 0.464-0.688 80.976h-190.944v-270.176c35.12-35.232 83.232-57.056 136.288-57.056 53.072 0 101.2 21.84 136.336 57.088v188.704zM315.536 62.816c-9.328 0-18.336 3.584-26.96 10.784-22.4 18.672-131.2 131.008-135.824 135.776-0.656 0.704-12.528 13.872-11.36 31.952 0.8 12.176 7.104 23.328 18.784 33.136 5.68 4.8 10.752 9.376 15.424 13.568 32.688 29.568 50.464 41.536 96.8-8.432l74.832-74.8-11.44-11.44-75.024 75.008c-37.744 40.72-45.504 33.664-74.336 7.664-4.784-4.32-10-9.008-15.824-13.936-8.16-6.88-12.56-14.224-13.056-21.808-0.704-11.088 6.928-19.744 7.008-19.824 0.976-0.992 112.672-116.336 134.4-134.432 10.416-8.688 24.48-13.984 49.68 12.96 11.84 12.704-0.592 27.776-2.048 29.456-36.976 37.44-94.16 95.040-98.816 98.88-4.72 3.728-12.384-2.736-16.528-6.88-5.712-5.728-4.464-10.816-3.472-12.976l58.992-59.008-11.424-11.424-60.976 61.232c-3.76 5.952-7.472 20.656 5.456 33.6 19.28 19.232 33.040 12.064 38.048 8.080 6.4-5.152 90.944-90.752 100.544-100.496 8.64-9.712 19.728-32.528 2.032-51.504-15.632-16.736-30.656-25.136-44.912-25.136z" />
<glyph unicode="&#xe610;" d="M256.016 463.104c-135.584 0-245.536-109.936-245.536-245.504 0-135.6 109.952-245.504 245.536-245.504 135.568 0 245.472 109.904 245.472 245.504 0 135.568-109.904 245.504-245.472 245.504zM255.984-4.688c-120.448 0-218.496 99.728-218.496 222.288s98.048 222.288 218.496 222.288c120.496 0 218.496-99.728 218.496-222.288s-98-222.288-218.496-222.288zM204.992 83.6h29.328v-16h-29.328v16zM330.144 368.368l83.984-83.44v-182.336c22.8 32.48 36.352 72.128 36.352 115.008 0 109.312-87.248 198.288-194.496 198.288-48.048 0-92-17.968-125.984-47.52h200.144zM97.872 332.608c-22.8-32.464-36.368-72.112-36.368-115.008s13.584-82.528 36.368-115.008v230.016zM392.32 265.12l-80.992 0.464-0.688 80.976h-67.328v-23.616h-24v23.616h-99.616v-270.176c21.168-21.232 47.072-37.536 75.936-47.168v71.392h48v-80.64c4.096-0.272 8.176-0.64 12.336-0.64 53.072 0 101.2 21.84 136.336 57.088v188.704zM217.312 141.936h-24v24h24v-24zM217.312 193.264h-24v24h24v-24zM217.312 244.608h-24v24h24v-24zM217.312 295.936h-24v24h24v-24zM243.312 115.936h-24v24h24v-24zM243.312 167.264h-24v24h24v-24zM243.312 218.608h-24v24h24v-24zM243.312 269.936h-24v24h24v-24zM359.344 103.472v-22.304h-85.776v20.608l55.488 88.528h-53.632v22.304h83.92v-21.28l-55.504-87.856h55.504z" />
<glyph unicode="&#xe611;" d="M256.016 463.104c-135.584 0-245.536-109.936-245.536-245.504 0-135.6 109.952-245.504 245.536-245.504 135.568 0 245.472 109.904 245.472 245.504 0 135.568-109.904 245.504-245.472 245.504zM255.984-4.688c-120.448 0-218.496 99.728-218.496 222.288s98.048 222.288 218.496 222.288c120.496 0 218.496-99.728 218.496-222.288s-98-222.288-218.496-222.288zM97.872 332.608c-22.8-32.464-36.368-72.112-36.368-115.008s13.584-82.528 36.368-115.008v230.016zM330.144 368.368l83.984-83.44v-182.336c22.8 32.48 36.352 72.128 36.352 115.008 0 109.312-87.248 198.288-194.496 198.288-48.048 0-92-17.968-125.984-47.52h200.144zM204.496 267.072h-7.648v-51.632h7.648c20.32 0 49.712-3.36 49.712 25.808s-29.392 25.824-49.712 25.824zM392.32 265.12l-80.992 0.464-0.688 80.976h-190.944v-270.176c35.12-35.232 83.232-57.056 136.288-57.056 53.072 0 101.2 21.84 136.336 57.088v188.704zM241.6 95.6h-20.912v20.896h20.912v-20.896zM241.6 137.376h-20.912v20.896h20.912v-20.896zM221.952 183.888h-25.088v-89.216h-37.296v203.936h71.696c43.264 0 61.184-31.792 61.184-58.56 0-28.192-16.736-56.16-70.496-56.16zM350.288 95.6h-87.696v20.896h87.696v-20.896zM262.592 137.376v20.896h87.696v-20.896h-87.696z" />
<glyph unicode="&#xe612;" d="M256.016 463.104c-135.584 0-245.536-109.936-245.536-245.504 0-135.6 109.952-245.504 245.536-245.504 135.568 0 245.472 109.904 245.472 245.504 0 135.568-109.904 245.504-245.472 245.504zM255.984-4.688c-120.448 0-218.496 99.728-218.496 222.288s98.048 222.288 218.496 222.288c120.496 0 218.496-99.728 218.496-222.288s-98-222.288-218.496-222.288zM97.872 332.608c-22.8-32.464-36.368-72.112-36.368-115.008s13.584-82.528 36.368-115.008v230.016zM330.144 368.368l83.984-83.44v-182.336c22.8 32.48 36.352 72.128 36.352 115.008 0 109.312-87.248 198.288-194.496 198.288-48.048 0-92-17.968-125.984-47.52h200.144zM172.016 232.128v-7.2l129.552-129.52h10.768v14.208l-122.688 122.512zM392.32 265.12l-80.992 0.464-0.688 80.976h-190.944v-270.176c35.12-35.232 83.232-57.056 136.288-57.056 53.072 0 101.2 21.84 136.336 57.088v188.704zM302.368 84.608l-31.952 31.92h-0.112l-29.872 29.872-33.008-32.992 30.128 0.112c-4.832-5.040-14.176-14.704-21.184-21.728h-65.936v18l61.152 61.152-53.952 53.968v18h68.336l42.256-42.24 41.904 42.24h38.192v-18l-57.584-61.152 13.92-0.112 11.504-11.008 21.36-21.28 25.184-24.416v-22.336h-60.336z" />
<glyph unicode="&#xe613;" d="M256.016 463.104c-135.584 0-245.536-109.936-245.536-245.504 0-135.6 109.952-245.504 245.536-245.504 135.568 0 245.472 109.904 245.472 245.504 0 135.568-109.904 245.504-245.472 245.504zM255.984-4.688c-120.448 0-218.496 99.728-218.496 222.288s98.048 222.288 218.496 222.288c120.496 0 218.496-99.728 218.496-222.288s-98-222.288-218.496-222.288zM97.872 332.608c-22.8-32.464-36.368-72.112-36.368-115.008s13.584-82.528 36.368-115.008v230.016zM330.144 368.368l83.984-83.44v-182.336c22.8 32.48 36.352 72.128 36.352 115.008 0 109.312-87.248 198.288-194.496 198.288-48.048 0-92-17.968-125.984-47.52h200.144zM392.32 265.12l-80.992 0.464-0.688 80.976h-190.944v-270.176c35.12-35.232 83.232-57.056 136.288-57.056 53.072 0 101.2 21.84 136.336 57.088v188.704zM355.776 220.992l-65.84-131.664h-31.92v86.928l-48.512-86.928h-47.552v131.664h-14.64v21.952h62.192v-21.952h-14.64v-80.496l60.384 102.448h34.688v-91.44l34.064 69.488h-12.736v21.952h56.512v-21.952h-12z" />
<glyph unicode="&#xe614;" d="M256.016 463.104c-135.584 0-245.536-109.936-245.536-245.504 0-135.6 109.952-245.504 245.536-245.504 135.568 0 245.472 109.904 245.472 245.504 0 135.568-109.904 245.504-245.472 245.504zM255.984-4.688c-120.448 0-218.496 99.728-218.496 222.288s98.048 222.288 218.496 222.288c120.496 0 218.496-99.728 218.496-222.288s-98-222.288-218.496-222.288zM97.872 332.608c-22.8-32.464-36.368-72.112-36.368-115.008s13.584-82.528 36.368-115.008v230.016zM262.336 200.432c-0.592 0.688-1.248 1.536-2 2.512-10.304 13.376-14.432 24.864-14.608 25.328-0.496 1.12-0.992 2.256-1.488 3.408-0.080-0.272-0.16-0.544-0.24-0.816-0.4-1.952-1.248-4.608-2.512-7.92-6.784-17.664-13.392-32.656-13.456-32.8-0.128-0.256-3.552-6.528-5.248-10.448-4.704-9.008-9.232-17.376-13.52-24.992 23.984 9.824 51.328 17.6 78.256 22.272-3.92 2.688-7.52 5.472-10.736 8.272-4.544 3.728-9.152 8.56-14.448 15.184zM330.144 368.368l83.984-83.44v-182.336c22.8 32.48 36.352 72.128 36.352 115.008 0 109.312-87.248 198.288-194.496 198.288-48.048 0-92-17.968-125.984-47.52h200.144zM392.32 265.12l-80.992 0.464-0.688 80.976h-190.944v-270.176c35.12-35.232 83.232-57.056 136.288-57.056 53.072 0 101.2 21.84 136.336 57.088v188.704zM377.936 159.792l-0.352-1.776c-0.736-3.6-4.096-7.856-16.016-7.856-15.392 0-39.040 7.136-59.088 17.792-34.752-3.52-71.040-11.216-97.472-20.688-24.864-42.784-43.696-63.6-57.584-63.6-2.176 0-4.24 0.496-6.128 1.504l-6.864 3.088-0.368 0.496c-1.28 1.68-1.552 4.336-0.784 7.664 2.448 10.8 15.792 28.88 45.376 44.336l2.528-4.064c-22.048-16.176-36.16-36.624-37.744-44.704 15.424 3.536 38.288 35.648 68 95.568 0.208 0.688 0.688 1.664 1.184 2.656 0.384 0.784 0.784 1.552 1.040 2.32l1.008 2.976 0.16-0.112c0.784 1.904 1.92 4.544 3.728 8.736 2.208 5.088 5.408 12.528 10.208 23.776h-0.416l1.664 3.168c2.576 7.008 4.912 14.096 6.944 21.088-7.888 26.48-10.192 53.792-5.84 69.76 1.68 6.752 5.68 8.176 8.72 8.176h4.656c1.616-0.064 5.232 0 7.664-2.912 2.48-2.992 3.040-7.92 1.712-15.088l-4.736 0.112c-0.88 6.512-3.44 9.984-5.536 11.776-0.576-0.816-1.36-2.096-2.192-3.76-2.736-8.64-2.064-24.976 1.664-43.104 1.488 7.376 2.48 13.68 3.328 19.088 0.784 5.008 1.408 8.976 2.176 12.176l4.736-0.608-0.128-6.464c-0.288-15.664-0.56-30.448-3.696-47.824 1.76-5.184 3.728-10.288 5.904-15.232l0.048 0.032 1.28-2.88c3.12-7.312 11.328-20.72 11.408-20.864 4.544-7.072 10.496-13.984 17.648-20.48 6.48-5.104 13.68-9.936 21.312-14.272 10.592 1.232 20.496 1.84 29.472 1.84 15.616 0 35.44-1.888 41.168-10.944 1.408-2.224 2.592-5.92 0.24-10.96h-0.032zM372.48 163.424c-1.776 1.936-8.832 6.432-35.824 6.432-2.88 0-5.888-0.064-9.008-0.16 15.2-6.448 29.728-10.304 39.36-10.304 3.072 0 5.568 0.416 7.152 1.2l0.24 0.128-0.992 0.272c0.080 0.912-0.224 1.664-0.928 2.432z" />
<glyph unicode="&#xe615;" d="M256.016 463.104c-135.584 0-245.536-109.936-245.536-245.504 0-135.6 109.952-245.504 245.536-245.504 135.568 0 245.472 109.904 245.472 245.504 0 135.568-109.904 245.504-245.472 245.504zM255.984-4.688c-120.448 0-218.496 99.728-218.496 222.288s98.048 222.288 218.496 222.288c120.496 0 218.496-99.728 218.496-222.288s-98-222.288-218.496-222.288zM255.984 415.888c-107.232 0-194.48-88.976-194.48-198.288s87.248-198.288 194.48-198.288c107.248 0 194.496 88.976 194.496 198.288s-87.248 198.288-194.496 198.288zM375.504 144.704c-5.056-31.2-34.448-52.368-65.648-47.296-31.168 5.072-52.336 34.448-47.248 65.648 0.016 0.080 0.048 0.16 0.064 0.24l-74.064 31.632c-10.896-11.504-27.088-17.6-43.872-14.864-26.976 4.384-45.248 29.792-40.896 56.768 4.4 26.928 29.808 45.248 56.768 40.864 8.912-1.456 16.736-5.36 23.248-10.72l79.2 46.48c-0.624 4.208-0.816 8.528-0.096 12.96 3.728 22.992 25.44 38.624 48.448 34.88 23.024-3.744 38.64-25.456 34.896-48.448-3.744-23.024-25.424-38.656-48.432-34.912-6.88 1.12-12.976 3.984-18.208 7.856l-78.784-46.256c1.088-4.864 1.296-9.968 0.816-15.152l75.6-31.456c12.576 13.44 31.408 20.576 50.96 17.408 31.152-5.088 52.32-34.48 47.248-65.632z" />
<glyph unicode="&#xe616;" d="M256.016 463.104c-135.584 0-245.536-109.936-245.536-245.504 0-135.6 109.952-245.504 245.536-245.504 135.568 0 245.472 109.904 245.472 245.504 0 135.568-109.904 245.504-245.472 245.504zM255.984-4.688c-120.448 0-218.496 99.728-218.496 222.288s98.048 222.288 218.496 222.288c120.496 0 218.496-99.728 218.496-222.288s-98-222.288-218.496-222.288zM255.984 415.888c-107.232 0-194.48-88.976-194.48-198.288s87.248-198.288 194.48-198.288c107.248 0 194.496 88.976 194.496 198.288s-87.248 198.288-194.496 198.288zM378.656 107.904c0-7.504-6.112-13.6-13.6-13.6h-65.76v92.336h30.896l4.608 35.84h-35.504v22.912c0 10.368 2.896 17.456 17.776 17.456h18.976v32.080c-3.264 0.416-14.544 1.408-27.664 1.408-27.376 0-46.112-16.704-46.112-47.392v-26.448h-30.96v-35.84h30.96v-92.336h-116.608c-7.488 0-13.6 6.096-13.6 13.6v219.36c0 7.504 6.112 13.616 13.6 13.616h219.408c7.488 0 13.6-6.112 13.6-13.616v-219.376z" />
<glyph unicode="&#xe617;" d="M256.016 463.104c-135.584 0-245.536-109.936-245.536-245.504 0-135.6 109.952-245.504 245.536-245.504 135.568 0 245.472 109.904 245.472 245.504 0 135.568-109.904 245.504-245.472 245.504zM255.984-4.688c-120.448 0-218.496 99.728-218.496 222.288s98.048 222.288 218.496 222.288c120.496 0 218.496-99.728 218.496-222.288s-98-222.288-218.496-222.288zM208.064 286.96c0-11.93-9.671-21.6-21.6-21.6s-21.6 9.671-21.6 21.6c0 11.929 9.671 21.6 21.6 21.6s21.6-9.671 21.6-21.6zM167.824 249.008h37.264v-119.792h-37.264v119.792zM255.984 415.888c-107.232 0-194.48-88.976-194.48-198.288s87.248-198.288 194.48-198.288c107.248 0 194.496 88.976 194.496 198.288s-87.248 198.288-194.496 198.288zM381.616 110.208c0-9.968-8.336-18.096-18.56-18.096h-213.872c-10.256 0-18.544 8.128-18.544 18.096v214.816c0 9.968 8.288 18.064 18.544 18.064h213.856c10.224 0 18.56-8.096 18.56-18.064v-214.816zM299.872 251.984c-18.128 0-30.288-9.952-35.216-19.344h-0.512v16.352h-35.712v-119.792h37.2v59.248c0 15.648 2.976 30.752 22.336 30.752 19.088 0 19.36-17.84 19.36-31.76v-58.24h37.184v65.712c-0.016 32.272-6.96 57.072-44.64 57.072z" />
<glyph unicode="&#xe618;" d="M256.016 463.104c-135.584 0-245.536-109.936-245.536-245.504 0-135.6 109.952-245.504 245.536-245.504 135.568 0 245.472 109.904 245.472 245.504 0 135.568-109.904 245.504-245.472 245.504zM255.984-4.688c-120.448 0-218.496 99.728-218.496 222.288s98.048 222.288 218.496 222.288c120.496 0 218.496-99.728 218.496-222.288s-98-222.288-218.496-222.288zM213.552 160.032l111.856 60.928-111.856 58.56zM255.984 415.888c-107.232 0-194.48-88.976-194.48-198.288s87.248-198.288 194.48-198.288c107.248 0 194.496 88.976 194.496 198.288s-87.248 198.288-194.496 198.288zM397.76 161.248c0 0-2.864-20.224-11.584-29.12-11.072-11.696-23.472-11.744-29.168-12.416-40.736-2.976-101.888-3.056-101.888-3.056s-75.664 0.704-98.976 2.944c-6.48 1.232-21.008 0.848-32.096 12.544-8.72 8.912-11.568 29.12-11.568 29.12s-2.928 23.728-2.928 47.472v22.256c0 23.728 2.928 47.472 2.928 47.472s2.848 20.224 11.568 29.104c11.072 11.68 23.472 11.744 29.168 12.432 40.736 2.976 101.808 2.976 101.808 2.976h0.16c0 0 61.072 0 101.808-2.976 5.696-0.688 18.096-0.752 29.168-12.432 8.72-8.896 11.584-29.104 11.584-29.104s2.912-23.728 2.912-47.472v-22.256c0.016-23.76-2.896-47.488-2.896-47.488z" />
<glyph unicode="&#xe619;" d="M256.016 463.104c-135.584 0-245.536-109.936-245.536-245.504 0-135.6 109.952-245.504 245.536-245.504 135.568 0 245.472 109.904 245.472 245.504 0 135.568-109.904 245.504-245.472 245.504zM255.984-4.688c-120.448 0-218.496 99.728-218.496 222.288s98.048 222.288 218.496 222.288c120.496 0 218.496-99.728 218.496-222.288s-98-222.288-218.496-222.288zM255.984 415.888c-107.232 0-194.48-88.976-194.48-198.288s87.248-198.288 194.48-198.288c107.248 0 194.496 88.976 194.496 198.288s-87.248 198.288-194.496 198.288zM372.096 260.352c0.112-2.48 0.176-4.976 0.176-7.488 0-76.256-58.048-164.176-164.176-164.176-32.576 0-62.928 9.568-88.448 25.936 4.512-0.56 9.104-0.816 13.76-0.816 27.040 0 51.904 9.2 71.664 24.704-25.264 0.448-46.576 17.136-53.936 40.064 3.552-0.688 7.152-1.040 10.88-1.040 5.264 0 10.352 0.72 15.216 2.032-26.416 5.328-46.304 28.64-46.304 56.592 0 0.256 0 0.48 0 0.736 7.776-4.336 16.672-6.944 26.144-7.232-15.504 10.352-25.664 28-25.664 48.048 0 10.56 2.832 20.464 7.792 29.008 28.464-34.928 71.008-57.872 118.944-60.288-0.976 4.192-1.488 8.608-1.488 13.12 0 31.872 25.84 57.696 57.696 57.696 16.592 0 31.6-7.008 42.112-18.208 13.168 2.576 25.488 7.376 36.656 13.968-4.32-13.456-13.456-24.752-25.392-31.904 11.68 1.408 22.816 4.496 33.152 9.088-7.744-11.552-17.52-21.712-28.784-29.84z" />
<glyph unicode="&#xe61a;" d="M256.016 463.104c-135.584 0-245.536-109.936-245.536-245.504 0-135.6 109.952-245.504 245.536-245.504 135.568 0 245.472 109.904 245.472 245.504 0 135.568-109.904 245.504-245.472 245.504zM255.984-4.688c-120.448 0-218.496 99.728-218.496 222.288s98.048 222.288 218.496 222.288c120.496 0 218.496-99.728 218.496-222.288s-98-222.288-218.496-222.288zM255.984 415.888c-107.232 0-194.48-88.976-194.48-198.288s87.248-198.288 194.48-198.288c107.248 0 194.496 88.976 194.496 198.288s-87.248 198.288-194.496 198.288zM277.6 145.52c-19.664 0-38.192 10.656-44.512 22.72 0 0-10.592-41.984-12.832-50.096-7.888-28.624-31.104-57.28-32.896-59.632-1.248-1.632-4.032-1.12-4.336 1.040-0.496 3.648-6.4 39.76 0.56 69.232 3.504 14.816 23.44 99.312 23.44 99.312s-5.808 11.632-5.808 28.848c0 27.008 15.664 47.152 35.136 47.152 16.576 0 24.576-12.432 24.576-27.344 0-16.688-10.608-41.6-16.096-64.688-4.56-19.312 9.696-35.088 28.768-35.088 34.512 0 57.76 44.336 57.76 96.912 0 39.936-26.88 69.824-75.808 69.824-55.264 0-89.712-41.232-89.712-87.28 0-15.856 4.688-27.072 12.032-35.728 3.36-3.968 3.824-5.6 2.608-10.16-0.896-3.344-2.88-11.44-3.712-14.624-1.2-4.624-4.96-6.288-9.12-4.56-25.456 10.368-37.328 38.288-37.328 69.632 0 51.744 43.664 113.84 130.256 113.84 69.6 0 115.376-50.336 115.376-104.4-0.032-71.488-39.776-124.912-98.352-124.912z" />
<glyph unicode="&#xe61b;" d="M256.016 463.104c-135.584 0-245.536-109.936-245.536-245.504 0-135.6 109.952-245.504 245.536-245.504 135.568 0 245.472 109.904 245.472 245.504 0 135.568-109.904 245.504-245.472 245.504zM255.984-4.688c-120.448 0-218.496 99.728-218.496 222.288s98.048 222.288 218.496 222.288c120.496 0 218.496-99.728 218.496-222.288s-98-222.288-218.496-222.288zM255.984 415.888c-107.232 0-194.48-88.976-194.48-198.288s87.248-198.288 194.48-198.288c107.248 0 194.496 88.976 194.496 198.288s-87.248 198.288-194.496 198.288zM328.736 147.872c-38.352-49.888-70.848-74.832-97.376-74.832-16.464 0-30.368 15.184-41.744 45.584-7.6 27.856-15.184 55.696-22.768 83.552-8.464 30.368-17.52 45.584-27.2 45.584-2.128 0-9.504-4.432-22.144-13.312l-13.28 17.12c13.92 12.24 27.68 24.48 41.184 36.752 18.56 16.064 32.512 24.496 41.808 25.36 21.952 2.096 35.488-12.928 40.576-45.072 5.472-34.704 9.248-56.256 11.392-64.704 6.336-28.752 13.296-43.136 20.896-43.136 5.936 0 14.8 9.328 26.624 28 11.824 18.656 18.144 32.88 19.008 42.624 1.68 16.112-4.64 24.192-19.008 24.192-6.784 0-13.728-1.568-20.88-4.624 13.856 45.44 40.336 67.52 79.472 66.256 29.008-0.864 42.656-19.664 40.992-56.432-1.264-27.52-20.432-65.168-57.552-112.912z" />
<glyph unicode="&#xe61c;" d="M256.016 463.104c-135.584 0-245.536-109.936-245.536-245.504 0-135.6 109.952-245.504 245.536-245.504 135.568 0 245.472 109.904 245.472 245.504 0 135.568-109.904 245.504-245.472 245.504zM255.984-4.688c-120.448 0-218.496 99.728-218.496 222.288s98.048 222.288 218.496 222.288c120.496 0 218.496-99.728 218.496-222.288s-98-222.288-218.496-222.288zM342.848 313.616h-28.672c-5.28 0-9.568-4.288-9.568-9.6v-28.672c0-5.28 4.288-9.552 9.568-9.552h28.672c5.296 0 9.6 4.272 9.6 9.552v28.672c-0.016 5.312-4.304 9.6-9.6 9.6zM333.28 217.968c0-42.24-34.256-76.48-76.48-76.48s-76.496 34.256-76.496 76.48c0 6.624 0.96 13.024 2.528 19.136h-21.664v-105.168c0-5.296 4.304-9.6 9.616-9.6h172.080c5.296 0 9.6 4.304 9.6 9.6v105.184h-21.664c1.552-6.112 2.48-12.528 2.48-19.152zM255.984 415.888c-107.232 0-194.48-88.976-194.48-198.288s87.248-198.288 194.48-198.288c107.248 0 194.496 88.976 194.496 198.288s-87.248 198.288-194.496 198.288zM381.104 122.352c0-15.824-12.848-28.672-28.672-28.672h-191.28c-15.84 0-28.656 12.848-28.656 28.672v191.264c0 15.84 12.816 28.672 28.656 28.672h191.28c15.824 0 28.672-12.832 28.672-28.672v-191.264zM304.608 217.984c0-26.403-21.404-47.808-47.808-47.808s-47.808 21.404-47.808 47.808c0 26.403 21.404 47.808 47.808 47.808s47.808-21.404 47.808-47.808z" />
<glyph unicode="&#xe61d;" d="M256.016 463.104c-135.584 0-245.536-109.936-245.536-245.504 0-135.6 109.952-245.504 245.536-245.504 135.568 0 245.472 109.904 245.472 245.504 0 135.568-109.904 245.504-245.472 245.504zM255.984-4.688c-120.448 0-218.496 99.728-218.496 222.288s98.048 222.288 218.496 222.288c120.496 0 218.496-99.728 218.496-222.288s-98-222.288-218.496-222.288zM303.536 253.888c-20.32 0-36.832-16.512-36.832-36.816 0-20.32 16.512-36.832 36.832-36.832 20.304 0 36.816 16.512 36.816 36.832-0.016 20.288-16.528 36.816-36.816 36.816zM303.536 193.056c-13.248 0-24.032 10.768-24.032 24.016s10.784 24 24.032 24c13.216 0 24.016-10.752 24.016-24s-10.8-24.016-24.016-24.016zM245.952 217.072c0-20.342-16.49-36.832-36.832-36.832s-36.832 16.49-36.832 36.832c0 20.342 16.49 36.832 36.832 36.832s36.832-16.49 36.832-36.832zM255.984 415.888c-107.232 0-194.48-88.976-194.48-198.288s87.248-198.288 194.48-198.288c107.248 0 194.496 88.976 194.496 198.288s-87.248 198.288-194.496 198.288zM385.984 139.264c0-28.672-23.168-51.872-51.856-51.872h-155.616c-28.64 0-51.856 23.2-51.856 51.872v155.6c0 28.656 23.216 51.872 51.856 51.872h155.616c28.688 0 51.856-23.216 51.856-51.872v-155.6z" />
<glyph unicode="&#xe61e;" d="M256.032 463.104c-135.6 0-245.536-109.936-245.536-245.504 0-135.6 109.936-245.504 245.536-245.504 135.568 0 245.472 109.904 245.472 245.504 0 135.568-109.904 245.504-245.472 245.504zM256-4.688c-120.464 0-218.496 99.728-218.496 222.288s98.032 222.288 218.496 222.288c120.496 0 218.496-99.712 218.496-222.288s-98-222.288-218.496-222.288zM256 415.888c-107.248 0-194.496-88.976-194.496-198.288s87.248-198.288 194.496-198.288 194.496 88.976 194.496 198.288-87.248 198.288-194.496 198.288zM214.672 118.448l-92.016 13.584v78.096h92.016v-91.68zM214.672 230.048h-92.016v77.104l92.016 13.424v-90.528zM361.328 98.432l-126.72 18.704v92.992h126.72v-111.696zM361.328 230.048h-126.72v91.84l126.72 18.48v-110.32z" />
<glyph unicode="&#xe61f;" d="M256.032 463.104c-135.6 0-245.536-109.936-245.536-245.504 0-135.6 109.936-245.504 245.536-245.504 135.568 0 245.472 109.904 245.472 245.504 0 135.568-109.904 245.504-245.472 245.504zM256-4.688c-120.464 0-218.496 99.728-218.496 222.288s98.032 222.288 218.496 222.288c120.496 0 218.496-99.712 218.496-222.288s-98-222.288-218.496-222.288zM256 415.888c-107.248 0-194.496-88.976-194.496-198.288s87.248-198.288 194.496-198.288 194.496 88.976 194.496 198.288-87.248 198.288-194.496 198.288zM258.928 354.56c16.128 18.032 42.176 22.816 43.6 21.616 1.424-1.184 2.032-28.048-13.712-46.704-15.728-18.64-42.176-22.8-43.6-21.616-1.456 1.184-2.432 28.656 13.712 46.704zM368.8 160c-5.312-13.056-11.952-24.848-19.008-34.832-15.648-22.128-33.36-34.912-43.328-35.136-20.512-0.448-38.336 13.424-53.056 13.040-0.144-0.032-0.304-0.048-0.448-0.032h-0.368c-0.16-0.016-0.32 0-0.464 0.032-14.72 0.352-32.528-13.504-53.040-13.040-9.952 0.24-27.68 13.008-43.312 35.136-7.056 9.984-13.696 21.76-19.008 34.832-4.784 11.792-8.48 24.672-10.448 38.336-0.912 6.384-1.456 12.96-1.536 19.648s0.256 12.912 0.976 18.656c1.952 15.968 6.688 28.496 12.848 38.336 17.584 28 46.736 34.048 55.856 35.008 18.336 1.888 44.144-12.32 58.16-12.544h0.352c14.016 0.24 39.84 14.432 58.176 12.544 8.4-0.88 35.184-4.896 51.648-30.816-2.368-1.248-4.656-2.64-6.848-4.192-12.208-8.672-21.024-22.080-23.92-38.336-0.672-3.76-1.024-7.648-1.024-11.68 0-9.536 1.968-18.56 5.472-26.608 6.8-15.664 19.376-27.632 34.64-32.384-0.784-2.032-1.536-4.016-2.32-5.968z" />
<glyph unicode="&#xe620;" d="M256.016 463.104c-135.584 0-245.52-109.936-245.52-245.504 0-135.6 109.936-245.504 245.536-245.504 135.552 0 245.456 109.904 245.456 245.504 0 135.568-109.904 245.504-245.472 245.504zM256-4.688c-120.48 0-218.512 99.728-218.512 222.288s98.032 222.288 218.512 222.288c120.48 0 218.48-99.728 218.48-222.288s-98-222.288-218.48-222.288zM213.792 340.896c-8.8 0-15.952-7.216-15.952-16 0-8.832 7.2-16 15.952-16 8.88 0 16.048 7.2 16.032 16 0 8.784-7.152 16-16.032 16zM298.016 340.912c-8.816-0.016-15.984-7.248-15.984-16 0-8.88 7.168-16.016 15.984-15.984 8.784 0 15.952 7.12 15.952 15.984 0.048 8.752-7.168 15.984-15.952 16zM256 415.888c-107.264 0-194.512-88.976-194.512-198.288s87.248-198.288 194.512-198.288c107.248 0 194.496 88.976 194.496 198.288s-87.264 198.288-194.496 198.288zM147.552 157.872c0-11.344-9.168-20.528-20.528-20.528-11.328 0-20.528 9.168-20.528 20.528v85.984c0 11.328 9.184 20.528 20.512 20.512 11.328 0.016 20.544-9.168 20.544-20.496v-86zM325.824 105.376h-14.976v-45.488c0-11.328-9.184-20.528-20.528-20.528-11.296-0.016-20.528 9.184-20.528 20.512v45.504l-27.712-0.016 0.016-45.472c0-8.512-5.168-15.824-12.544-18.944-2.464-1.040-5.168-1.632-8-1.632-8.464 0-15.76 5.184-18.88 12.544-1.040 2.448-1.616 5.152-1.616 7.984l-0.032 45.504h-14.912c-12.112 0-21.92 9.776-21.904 21.904l-0.016 133.232 183.536 0.016 0.016-133.216c-0.016-12.096-9.84-21.904-21.92-21.904zM163.424 283.648c-0.016 31.744 19.008 59.408 47.184 73.952l-14.336 26.128c-0.768 1.376-0.256 3.104 1.136 3.856 1.36 0.768 3.104 0.272 3.856-1.136l14.496-26.352c12.144 5.392 25.744 8.416 40.128 8.4 14.4 0.016 28.032-3.024 40.224-8.416l14.48 26.416c0.736 1.376 2.464 1.888 3.856 1.12 1.392-0.752 1.872-2.496 1.12-3.872l-14.336-26.16c28.128-14.56 47.104-42.176 47.104-73.92l-184.912-0.016zM384.864 137.36c-11.344 0-20.528 9.184-20.544 20.528v85.968c-0.016 11.344 9.184 20.544 20.512 20.544 11.344 0 20.528-9.2 20.528-20.528l0.016-85.968c-0.016-11.344-9.184-20.544-20.512-20.544z" />
<glyph unicode="&#xe621;" d="M256.032 463.104c-135.6 0-245.536-109.936-245.536-245.504 0-135.6 109.936-245.504 245.536-245.504 135.552 0 245.456 109.904 245.456 245.504 0 135.568-109.904 245.504-245.456 245.504zM256-4.688c-120.464 0-218.496 99.728-218.496 222.288s98.032 222.288 218.496 222.288c120.48 0 218.48-99.712 218.48-222.288s-98-222.288-218.48-222.288zM124.336 304.96h262.944v-136.256h-262.944v136.256zM256 415.888c-107.248 0-194.496-88.976-194.496-198.288s87.248-198.288 194.496-198.288c107.232 0 194.48 88.976 194.48 198.288s-87.248 198.288-194.48 198.288zM304.256 67.984c-10.576 0-42.976 0-48.064 0 0 0-0.32 0-0.768 0-5.088 0-37.472 0-48.048 0-11.488 0-13.776 5.104 1.44 12.816 8.688 4.16 12.064 12.464 13.216 20.16h67.568c1.152-7.68 4.528-16 13.216-20.16 13.52-7.056 12.912-12.816 1.44-12.816zM395.76 118.224h-13.104v0.064h-267.136c-6.176 0.176-11.152 5.2-11.152 11.44v183.76c0 6.336 5.136 11.472 11.472 11.472h279.936c6.352 0 11.504-5.136 11.504-11.472v-183.76c-0.016-6.352-5.152-11.504-11.52-11.504z" />
<glyph unicode="&#xe622;" d="M256.032 463.104c-135.6 0-245.536-109.936-245.536-245.504 0-135.6 109.936-245.504 245.536-245.504 135.552 0 245.456 109.904 245.456 245.504 0 135.568-109.904 245.504-245.456 245.504zM256-4.688c-120.464 0-218.496 99.728-218.496 222.288s98.032 222.288 218.496 222.288c120.48 0 218.48-99.712 218.48-222.288s-98-222.288-218.48-222.288zM271.040 91.008c0-8.987-7.285-16.272-16.272-16.272s-16.272 7.285-16.272 16.272c0 8.987 7.285 16.272 16.272 16.272s16.272-7.285 16.272-16.272zM264.16 352.416c0-5.187-4.205-9.392-9.392-9.392s-9.392 4.205-9.392 9.392c0 5.187 4.205 9.392 9.392 9.392s9.392-4.205 9.392-9.392zM163.872 335.632h181.792v-220.864h-181.792v220.864zM256 415.888c-107.248 0-194.496-88.976-194.496-198.288s87.248-198.288 194.496-198.288c107.232 0 194.48 88.976 194.48 198.288s-87.248 198.288-194.48 198.288zM371.76 93.584c0-14.912-12.096-27.008-26.992-27.008h-180c-14.912 0-27.008 12.096-27.008 27.008v248.384c0 14.912 12.096 26.992 27.008 26.992h180c14.896 0 26.992-12.080 26.992-26.992v-248.384z" />
<glyph unicode="&#xe623;" d="M256.032 463.104c-135.6 0-245.536-109.936-245.536-245.504 0-135.6 109.936-245.504 245.536-245.504 135.552 0 245.456 109.904 245.456 245.504 0 135.568-109.904 245.504-245.456 245.504zM256-4.688c-120.464 0-218.496 99.728-218.496 222.288s98.032 222.288 218.496 222.288c120.48 0 218.48-99.712 218.48-222.288s-98-222.288-218.48-222.288zM187.488 312.288h132.896v-193.296h-132.896v193.296zM235.072 324.384h39.296c3.312 0 6.032 2.704 6.032 6.016 0 3.36-2.72 6.048-6.032 6.048h-39.296c-3.328 0-6.016-2.688-6.016-6.048-0.016-3.312 2.688-6.016 6.016-6.016zM269.792 94.368c0-8.333-6.755-15.088-15.088-15.088s-15.088 6.755-15.088 15.088c0 8.333 6.755 15.088 15.088 15.088s15.088-6.755 15.088-15.088zM256 415.888c-107.248 0-194.496-88.976-194.496-198.288s87.248-198.288 194.496-198.288c107.232 0 194.48 88.976 194.48 198.288s-87.248 198.288-194.48 198.288zM331.040 89.312c0-12.832-9.344-23.248-20.848-23.248h-110.976c-11.52 0-20.848 10.416-20.848 23.248v251.072c0 12.832 9.328 23.248 20.848 23.248h110.976c11.504 0 20.848-10.416 20.848-23.248v-251.072z" />
<glyph unicode="&#xe624;" d="M256.032 463.104c-135.6 0-245.536-109.936-245.536-245.504 0-135.6 109.936-245.504 245.536-245.504 135.552 0 245.456 109.904 245.456 245.504 0 135.568-109.904 245.504-245.456 245.504zM256-4.688c-120.464 0-218.496 99.728-218.496 222.288s98.032 222.288 218.496 222.288c120.48 0 218.48-99.712 218.48-222.288s-98-222.288-218.48-222.288zM176.656 227.712h23.088l5.984 20.080h-20.64zM214.688 277.152h-16.256l-8.368-17.488h19.232zM376.768 105.76l-21.648 43.504h-32.416l9.376-31.44h-48.096l-19.264 216.112h17.68l145.952-207.824c14.064 27.408 22.128 58.496 22.128 91.504 0 109.312-87.248 198.288-194.464 198.288-107.248-0.016-194.496-88.992-194.496-198.304 0-30.4 6.944-59.12 19.008-84.912l141.328 201.232h17.664l-22.208-231.632-55.28-0.064 15.040 49.376h-32.384l-14.192-33.792h-42.272c33.776-58.8 96.256-98.496 167.792-98.496 66.544 0 125.344 34.32 160.416 86.432h-39.664zM323.152 225.504l-8.448 20.112h-20.704l6-20.112zM343.344 177.312l-12.88 30.72h-25.264l9.136-30.72zM156.448 179.632h28.976l9.152 30.672h-25.232zM285.744 276.448l4.704-17.184h18.224l-6.768 17.184z" />
<glyph unicode="&#xe625;" d="M256.032 463.104c-135.6 0-245.536-109.936-245.536-245.504 0-135.6 109.936-245.504 245.536-245.504 135.552 0 245.456 109.904 245.456 245.504 0 135.568-109.904 245.504-245.456 245.504zM256-4.688c-120.464 0-218.496 99.728-218.496 222.288s98.032 222.288 218.496 222.288c120.48 0 218.48-99.712 218.48-222.288s-98-222.288-218.48-222.288zM233.984 321.952h-25.472c-19.632-3.536-42.752-22.24-42.752-30.464v-9.248c0-5.664 2.704-10.544 6.688-13.040 1.776-1.152 3.84-1.856 6.096-1.856h55.44c0.96 0 1.856 0.144 2.752 0.368 5.744 1.472 10.016 7.392 10.016 14.528v24.8c0 8.24-5.712 14.912-12.768 14.912zM303.472 321.952h-25.472c-7.056 0-12.768-6.672-12.768-14.928v-24.8c0-7.136 4.272-13.056 10.016-14.528 0.896-0.24 1.792-0.368 2.752-0.368h55.44c2.256 0 4.32 0.704 6.096 1.856 3.984 2.496 6.688 7.392 6.688 13.040v9.248c0 8.256-23.136 26.96-42.752 30.48zM256 415.888c-107.248 0-194.496-88.976-194.496-198.288s87.248-198.288 194.496-198.288c107.232 0 194.48 88.976 194.48 198.288s-87.248 198.288-194.48 198.288zM170 159.712c-17.264 0-31.232 13.984-31.232 31.248 0 17.248 13.968 31.248 31.232 31.248s31.248-14 31.248-31.248c0-17.264-13.984-31.248-31.248-31.248zM341.984 159.712c-17.264 0-31.248 13.984-31.248 31.248 0 17.248 13.984 31.248 31.248 31.248s31.232-14 31.232-31.248c0-17.264-13.968-31.248-31.232-31.248zM407.712 163.696l-14.448-0.416c3.344 10.912 4.32 19.696 4.32 31.040 0 30.704-24.864 55.6-55.6 55.6-30.672 0-55.584-24.896-55.584-55.6 0-11.344-0.496-18.464 2.864-30.624h-66.544c3.36 12.16 2.864 19.28 2.864 30.624 0 30.704-24.912 55.6-55.584 55.6-30.736 0-55.6-24.896-55.6-55.6 0-11.344 0.976-20.144 4.32-31.040l-14.448 0.416c-11.92 0-21.6 9.664-21.6 21.6v62.352c0 11.888 9.664 21.552 21.6 21.552h42.656v29.936c0 9.376 47.136 39.776 56.512 39.776h105.104c9.376 0 56.512-30.4 56.512-39.776v-29.936h42.656c11.92 0 21.6-9.664 21.6-21.552v-62.352c0-11.952-9.664-21.6-21.6-21.6z" />
<glyph unicode="&#xe626;" d="M256.032 463.104c-135.6 0-245.536-109.936-245.536-245.504 0-135.6 109.936-245.504 245.536-245.504 135.552 0 245.456 109.904 245.456 245.504 0 135.568-109.904 245.504-245.456 245.504zM256-4.688c-120.464 0-218.496 99.728-218.496 222.288s98.032 222.288 218.496 222.288c120.48 0 218.48-99.712 218.48-222.288s-98-222.288-218.48-222.288zM216.080 251.952c1.936 0-11.984-2.336-11.984-15.984 0-1.984-1.696-16.016 11.984-16.016-1.936 0 11.984 2.336 11.984 16.016 0 1.952 1.696 15.984-11.984 15.984zM248.192 241.728c1.936 0-12.016-2.336-12.016-15.984 0-1.936-1.664-16.016 12.016-16.016-1.936 0 11.984 2.368 11.984 16.016 0 1.936 1.696 15.984-11.984 15.984zM155.983 273.38c6.401-1.715 9.737-10.025 7.45-18.56s-9.33-14.064-15.732-12.349c-6.401 1.715-9.737 10.025-7.45 18.56s9.33 14.064 15.732 12.349zM183.968 263.52c1.936 0-12.016-2.336-12.016-16 0-1.952-1.664-16 12.016-16-1.936 0 11.984 2.336 11.984 16 0-3.248 3.872 16-11.984 16zM280.304 232.048c1.952 0-12.032-2.304-12.032-16 0-1.952-1.648-16 12.032-16-1.952 0 12 2.336 12 16 0 2 1.664 16-12 16zM256 415.888c-107.248 0-194.496-88.976-194.496-198.288s87.248-198.288 194.496-198.288c107.232 0 194.48 88.976 194.48 198.288s-87.248 198.288-194.48 198.288zM304.992 324.96l23.008-6-16-71.344-96 22.336 88.992 55.008zM320.736 167.552l-3.28 1.072-26.176 8.864-24.704-116.704-28.688 9.936-52.288 142.48-71.136 24.080c-13.808 4.624-35.408 23.936-30.768 37.744 4.656 13.792 33.76 16.928 47.584 12.288l220.544-74.448 65.488 35.424 20.192-6.56-23.792-50.384c4.336-2.16 8.080-5.152 10.608-9.056-19.696-34.576-103.584-14.736-103.584-14.736z" />
<glyph unicode="&#xe627;" d="M256.032 463.104c-135.6 0-245.536-109.936-245.536-245.504 0-135.6 109.936-245.504 245.536-245.504 135.552 0 245.456 109.904 245.456 245.504 0 135.568-109.904 245.504-245.456 245.504zM256-4.688c-120.464 0-218.496 99.728-218.496 222.288s98.032 222.288 218.496 222.288c120.48 0 218.48-99.712 218.48-222.288s-98-222.288-218.48-222.288zM346.208 113.792c-16.224-0.336-22.88 2.72-22.88 17.184 0-14.464-9.664-26.56-22.864-30.512h-17.488c4 14.496 3.408 23.008 3.408 36.512 0 36.608-29.68 66.288-66.272 66.288-36.64 0-66.288-29.664-66.288-66.288 0-13.52 1.136-24.016 5.136-37.008l-17.232 0.496c-14.224 0-25.744 11.52-25.744 25.744v74.336c0 14.192 11.536 25.696 25.744 25.696h50.864v35.68c0 11.184 56.208 47.44 67.376 47.44h62.88v56.16c0 11.152 6.528 20.24 14.544 20.24h21.12c-29.792 18.976-64.848 30.128-102.512 30.128-107.248 0-194.496-88.976-194.496-198.288s87.248-198.288 194.496-198.288c69.872 0 131.072 37.904 165.376 94.464h-75.168zM220.128 95.712c-20.576 0-37.248 16.672-37.248 37.264 0 20.56 16.672 37.248 37.248 37.248s37.264-16.688 37.264-37.248c-0.016-20.592-16.688-37.264-37.264-37.264zM311.648 241.808c0-8.496-5.088-15.584-11.936-17.312-1.056-0.304-2.16-0.448-3.28-0.448h-66.112c-2.688 0-5.136 0.832-7.264 2.224-4.752 2.992-7.968 8.816-7.968 15.552v11.024c0 9.824 27.568 32.128 50.992 36.336h30.352c8.4 0 15.216-7.952 15.216-17.776v-29.6z" />
<glyph unicode="&#xe628;" d="M256.032 463.104c-135.6 0-245.536-109.936-245.536-245.504 0-135.6 109.936-245.504 245.536-245.504 135.552 0 245.456 109.904 245.456 245.504 0 135.568-109.904 245.504-245.456 245.504zM256-4.688c-120.464 0-218.496 99.728-218.496 222.288s98.032 222.288 218.496 222.288c120.48 0 218.48-99.712 218.48-222.288s-98-222.288-218.48-222.288zM256 415.888c-107.248 0-194.496-88.976-194.496-198.288s87.248-198.288 194.496-198.288c107.232 0 194.48 88.976 194.48 198.288s-87.248 198.288-194.48 198.288zM231.008 359.248c0.992 3.6 7.648 7.68 12.656 8.24 11.872 0.864 9.76 0.864 19.776 0 3.952 0 12.864-4.64 13.84-8.24 4.736-17.296 9.488-34.608 14.224-51.92-25.936-3.52-49.024-3.568-74.784-0.256 4.768 17.392 9.52 34.784 14.288 52.176zM207.056 271.808c32.832-4.8 61.024-4.608 94.064 0.384 4.416-16.192 8.864-32.352 13.296-48.544-43.792-11.36-77.248-11.488-120.688-0.512 4.448 16.224 8.88 32.448 13.328 48.672zM380.288 123.392c0-6.144-3.072-11.152-6.864-11.152h-238.56c-3.792 0-6.864 5.024-6.864 11.152v12.56c0 6.16 3.072 11.168 6.864 11.168h38.032c3.76 13.728 7.52 27.472 11.296 41.2 50.592-13.072 88.8-12.976 139.76 0.496 3.808-13.888 7.616-27.792 11.424-41.696h38.048c3.776 0 6.864-5.008 6.864-11.168v-12.56z" />
<glyph unicode="&#xe629;" d="M256.032 463.104c-135.6 0-245.536-109.936-245.536-245.504 0-135.6 109.936-245.504 245.536-245.504 135.552 0 245.456 109.904 245.456 245.504 0 135.568-109.904 245.504-245.456 245.504zM256-4.688c-120.464 0-218.496 99.728-218.496 222.288s98.032 222.288 218.496 222.288c120.48 0 218.48-99.712 218.48-222.288s-98-222.288-218.48-222.288zM256 415.888c-107.248 0-194.496-88.976-194.496-198.288s87.248-198.288 194.496-198.288c107.232 0 194.48 88.976 194.48 198.288s-87.248 198.288-194.48 198.288zM179.024 129.296h-48v50h48v-50zM246.448 129.296h-48v120h48v-120zM313.888 129.296h-48v79.344h48v-79.344zM381.312 129.296h-48v182h48v-182z" />
<glyph unicode="&#xe62a;" d="M256.032 463.104c-135.6 0-245.536-109.936-245.536-245.504 0-135.6 109.936-245.504 245.536-245.504 135.552 0 245.456 109.904 245.456 245.504 0 135.568-109.904 245.504-245.456 245.504zM256-4.688c-120.464 0-218.496 99.728-218.496 222.288s98.032 222.288 218.496 222.288c120.48 0 218.48-99.712 218.48-222.288s-98-222.288-218.48-222.288zM256 415.888c-107.248 0-194.496-88.976-194.496-198.288 0-24.96 4.736-48.752 13.024-70.768-0.288 3.728-0.592 7.456-0.592 11.264 0 81.152 67.696 146.928 151.28 147.136l-15.856-173.616 163.056 62.88c3.072-11.648 4.88-23.808 4.88-36.4 0-62.4-40.128-115.632-96.672-137.008 95.648 12.416 169.856 95.728 169.856 196.512 0 109.312-87.248 198.288-194.48 198.288zM252.912 362.944c0.128 0 0.272 0.016 0.4 0.016 43.728 0 82.992-18.624 110.64-48.24l-125.312-133.776 14.272 182zM262.656 175.616l95.632 102.752c13.664-14.64 23.68-32.688 28.8-52.688l-124.432-50.064z" />
<glyph unicode="&#xe62b;" d="M256.032 463.104c-135.6 0-245.536-109.936-245.536-245.504 0-135.6 109.936-245.504 245.536-245.504 135.552 0 245.456 109.904 245.456 245.504 0 135.568-109.904 245.504-245.456 245.504zM256-4.688c-120.464 0-218.496 99.728-218.496 222.288s98.032 222.288 218.496 222.288c120.48 0 218.48-99.712 218.48-222.288s-98-222.288-218.48-222.288zM256 415.888c-107.248 0-194.496-88.976-194.496-198.288s87.248-198.288 194.496-198.288c107.232 0 194.48 88.976 194.48 198.288s-87.248 198.288-194.48 198.288zM389.936 128.016h-266.032v181.376h21.872v-160.832h244.16v-20.544zM374.608 272.112c-1.424 0-2.704 0.464-4.016 0.816l-65.68-67.6c0.352-1.328 0.832-2.624 0.832-4.080 0-8.96-7.248-16.208-16.192-16.208-8.976 0-16.208 7.248-16.208 16.208 0 3.152 1.136 5.936 2.704 8.432l-14.96 37.408c-1.536 0.256-3.040 0.544-4.4 1.2l-54.016-56.368c0.576-1.664 1.056-3.392 1.056-5.264 0-8.928-7.264-16.192-16.192-16.192-8.976 0-16.208 7.264-16.208 16.192 0 8.96 7.232 16.208 16.208 16.208 1.616 0 3.072-0.48 4.544-0.928l55.888 58.304c-0.144 0.864-0.512 1.648-0.512 2.544 0 8.96 7.248 16.208 16.208 16.208s16.192-7.248 16.192-16.208c0-4.464-1.808-8.528-4.736-11.456l13.632-34.064c0.288 0.016 0.528 0.176 0.832 0.176 2.032 0 3.92-0.48 5.696-1.152l64.336 66.24c-0.704 1.808-1.168 3.728-1.168 5.776 0 8.96 7.232 16.208 16.192 16.208 8.944 0 16.192-7.248 16.192-16.208-0.032-8.928-7.28-16.192-16.224-16.192z" />
<glyph unicode="&#xe62c;" d="M256.016 463.104c-135.584 0-245.536-109.936-245.536-245.504 0-135.6 109.952-245.504 245.536-245.504 135.568 0 245.472 109.904 245.472 245.504 0 135.568-109.904 245.504-245.472 245.504zM255.984-4.688c-120.448 0-218.496 99.728-218.496 222.288s98.048 222.288 218.496 222.288c120.496 0 218.496-99.728 218.496-222.288s-98-222.288-218.496-222.288zM250.688 237.552c-4.416 0-7.952-1.744-7.952-3.904v-127.456c0-2.16 3.536-3.904 7.952-3.904 4.384 0 7.952 1.744 7.952 3.904v127.456c0 2.16-3.568 3.904-7.952 3.904zM172.944 237.552c-4.4 0-7.952-1.744-7.952-3.904v-127.456c0-2.16 3.552-3.904 7.952-3.904 4.384 0 7.968 1.744 7.968 3.904v127.456c0 2.16-3.584 3.904-7.968 3.904zM211.792 237.552c-4.384 0-7.952-1.744-7.952-3.904v-127.456c0-2.16 3.568-3.904 7.952-3.904 4.368 0 7.952 1.744 7.952 3.904v127.456c0 2.16-3.568 3.904-7.952 3.904zM289.552 237.552c-4.384 0-7.968-1.744-7.968-3.904v-127.456c0-2.16 3.584-3.904 7.968-3.904 4.368 0 7.952 1.744 7.952 3.904v127.456c0 2.16-3.584 3.904-7.952 3.904zM255.984 415.888c-107.232 0-194.48-88.976-194.48-198.288s87.248-198.288 194.48-198.288c107.248 0 194.496 88.976 194.496 198.288s-87.248 198.288-194.496 198.288zM140.112 278.272c15.856 28.912 31.712 57.84 47.584 86.752 1.616 2.944 6.336 5.344 10.512 5.344 46.224 0 69.344 0 115.6 0 4.192 0 8.912-2.4 10.512-5.344 15.84-28.912 31.696-57.84 47.584-86.752 1.616-2.976-3.264-5.344-10.88-5.344-70.016 0-140.016 0-210.032 0-7.632 0-12.496 2.368-10.88 5.344zM373.488 247.808c0-0.096-0.048-0.192-0.048-0.288s0.048-0.192 0.048-0.288v-45.856c0-0.096-0.048-0.192-0.048-0.288 0-0.128 0.048-0.192 0.048-0.32v-53.952c0-1.376-0.32-2.688-0.72-3.936 0.24 0.256 0.528 0.432 0.72 0.688v-5.44c0-0.096-0.048-0.192-0.048-0.288s0.048-0.192 0.048-0.288v-39.552c0-6.56-4.8-11.904-10.72-11.904h-213.536c-5.936 0-10.72 5.344-10.72 11.904v39.552c0 0.096 0.048 0.192 0.048 0.288s-0.048 0.192-0.048 0.288v5.44c0.192-0.256 0.48-0.432 0.72-0.688-0.4 1.248-0.72 2.56-0.72 3.936v53.984c0 0.128 0.048 0.192 0.048 0.32 0 0.096-0.048 0.192-0.048 0.288v45.856c0 0.096 0.048 0.192 0.048 0.288s-0.048 0.192-0.048 0.288v5.44c1.664-2.192 5.264-3.744 10.288-3.744 71.472 0 142.928 0 214.4 0 5.008 0 8.624 1.568 10.288 3.744v-5.472zM349.232 223.408c0-8.394-6.805-15.2-15.2-15.2s-15.2 6.805-15.2 15.2c0 8.394 6.805 15.2 15.2 15.2s15.2-6.805 15.2-15.2z" />
<glyph unicode="&#xe62d;" d="M256.032 463.104c-135.6 0-245.536-109.936-245.536-245.504 0-135.6 109.936-245.504 245.536-245.504 135.552 0 245.456 109.904 245.456 245.504 0 135.568-109.904 245.504-245.456 245.504zM256-4.688c-120.464 0-218.496 99.728-218.496 222.288s98.032 222.288 218.496 222.288c120.48 0 218.48-99.712 218.48-222.288s-98-222.288-218.48-222.288zM256 415.888c-107.248 0-194.496-88.976-194.496-198.288s87.248-198.288 194.496-198.288c107.232 0 194.48 88.976 194.48 198.288s-87.248 198.288-194.48 198.288zM306.656 380.96l-23.968-155.536h26.64c4.928 0 8.896-3.984 8.896-8.88 0-2.432-0.992-4.656-2.592-6.288l-53.296-53.28c-1.616-1.6-3.824-2.608-6.272-2.608-2.464 0-4.672 1.008-6.272 2.608l-53.28 53.28c-1.616 1.632-2.608 3.84-2.608 6.288 0 4.896 3.984 8.88 8.88 8.88h26.64l-23.44 155.536h100.672zM389.248 118.864c0-19.632-15.904-35.504-35.52-35.504h-195.344c-19.616 0-35.52 15.872-35.52 35.504v195.36c0 19.616 15.904 35.52 35.52 35.52h15.6l31.44-100.32h-2.64c-18.128 0-32.88-14.752-32.88-32.88 0-8.752 3.408-16.992 9.648-23.248l53.312-53.328c6.224-6.192 14.464-9.6 23.2-9.6 8.704 0 16.944 3.392 23.232 9.648l53.376 53.36c6.16 6.224 9.552 14.432 9.552 23.168 0 18.128-14.752 32.88-32.896 32.88h-2.64l31.296 100.32h15.744c19.616 0 35.52-15.904 35.52-35.52v-195.36z" />
<glyph unicode="&#xe62e;" d="M256.032 463.104c-135.6 0-245.536-109.936-245.536-245.504 0-135.6 109.936-245.504 245.536-245.504 135.552 0 245.456 109.904 245.456 245.504 0 135.568-109.904 245.504-245.456 245.504zM256-4.688c-120.464 0-218.496 99.728-218.496 222.288s98.032 222.288 218.496 222.288c120.48 0 218.48-99.712 218.48-222.288s-98-222.288-218.48-222.288zM233.984 184.88l11.328-42.272h-40.832c-1.68 0-3.184-1.152-3.184-2.432 0-0.56 0.272-1.088 0.784-1.568l62.688-58.256c0.368-0.32 1.168-0.912 2.448-0.912 1.232 0 2.048 0.592 2.416 0.928l62.736 58.256c0.448 0.448 0.704 0.976 0.704 1.552 0 1.168-1.264 2.432-3.2 2.432h-40.864l11.584 42.272 16.608 60.576h-99.488l16.272-60.576zM256 415.888c-107.248 0-194.496-88.976-194.496-198.288s87.248-198.288 194.496-198.288c107.232 0 194.48 88.976 194.48 198.288s-87.248 198.288-194.48 198.288zM372.976 184.88c-0.832 0-1.632 0.080-2.432 0.128-0.368-0.064-0.736-0.128-1.104-0.128h-53.744l-7.616-27.744h21.808c9.776 0 17.744-7.6 17.744-16.96 0-4.608-1.888-8.928-5.344-12.176l-62.768-58.288c-3.36-3.088-7.728-4.8-12.304-4.8-4.624 0-9.008 1.696-12.336 4.8l-62.704 58.272c-3.504 3.248-5.408 7.552-5.408 12.192 0 9.36 7.968 16.96 17.712 16.96h21.872l-7.424 27.744h-87.92c-0.592 0-1.2 0.064-1.744 0.192-23.84 1.968-42.592 21.904-42.592 46.24 0 25.664 20.8 46.448 46.448 46.448 6.496 0 12.688-1.36 18.336-3.776 9.712 23.088 32.544 39.328 59.184 39.328 6.656 0 13.104-1.024 19.136-2.912 14.256 18.416 36.528 30.336 61.648 30.336 35.76 0 65.84-24.128 75.008-57.008 2.16 0.304 4.336 0.48 6.56 0.48 27.424 0 49.664-22.24 49.664-49.664-0.016-27.424-22.272-49.664-49.68-49.664z" />
<glyph unicode="&#xe62f;" d="M256.032 463.104c-135.6 0-245.536-109.936-245.536-245.504 0-135.6 109.936-245.504 245.536-245.504 135.552 0 245.456 109.904 245.456 245.504 0 135.568-109.904 245.504-245.456 245.504zM256-4.688c-120.464 0-218.496 99.728-218.496 222.288s98.032 222.288 218.496 222.288c120.48 0 218.48-99.712 218.48-222.288s-98-222.288-218.48-222.288zM273.408 278.144c-0.368 0.336-1.184 0.928-2.432 0.928-1.28 0-2.064-0.576-2.448-0.944l-62.72-58.224c-0.464-0.448-0.736-0.992-0.736-1.584 0-1.152 1.28-2.4 3.184-2.4h40.928l-9.904-36.144-18.32-66.72h99.472l-17.904 66.72-9.664 36.144h40.816c1.68 0 3.2 1.12 3.2 2.4 0 0.592-0.272 1.12-0.768 1.584l-62.704 58.24zM256 415.888c-107.248 0-194.496-88.976-194.496-198.288s87.248-198.288 194.496-198.288c107.232 0 194.48 88.976 194.48 198.288s-87.248 198.288-194.48 198.288zM376.752 179.792c-0.832 0-1.632 0.080-2.448 0.128-0.336-0.048-0.736-0.128-1.088-0.128h-55.632l21.808-81.264h-137.504l22.288 81.264h-89.424c-0.608 0-1.168 0.064-1.728 0.208-23.856 1.968-42.608 21.872-42.608 46.24 0 25.664 20.784 46.448 46.464 46.448 6.48 0 12.672-1.344 18.32-3.776 9.728 23.104 32.576 39.296 59.2 39.296 6.656 0 13.104-1.008 19.136-2.912 14.272 18.464 36.496 30.384 61.632 30.384 35.792 0 65.888-24.16 75.040-57.040 2.144 0.32 4.32 0.496 6.544 0.496 27.424 0 49.664-22.224 49.664-49.68 0-27.44-22.24-49.664-49.664-49.664z" />
<glyph unicode="&#xe630;" d="M256.032 463.12c-135.6 0-245.536-109.936-245.536-245.52 0-135.6 109.936-245.504 245.536-245.504 135.568 0 245.472 109.904 245.472 245.504 0 135.584-109.904 245.52-245.472 245.52zM256-4.688c-120.464 0-218.496 99.728-218.496 222.288 0 122.576 98.032 222.304 218.496 222.304 120.496 0 218.496-99.712 218.496-222.304 0-122.56-98-222.288-218.496-222.288zM256 415.904c-107.248 0-194.496-88.976-194.496-198.304 0-109.312 87.248-198.288 194.496-198.288s194.496 88.976 194.496 198.288c0 109.328-87.248 198.304-194.496 198.304zM367.6 245.824c0 0-8-95.744-50.576-146.288-3.104-3.696-6.4-7.136-9.872-10.288l-6.912-5.616-43.616-35.52-50.8 41.36c-4.96 4.432-9.552 9.408-13.776 14.848-40.192 51.552-49.392 141.488-49.392 141.488v19.152l114.16-29.312 110.784 29.312v-19.136zM367.6 302.96l-110.784-25.968-114.16 25.968v34.016l114.16-26.016 110.784 26.016v-34.016z" />
<glyph unicode="&#xe631;" d="M256.032 463.104c-135.6 0-245.536-109.936-245.536-245.504 0-135.6 109.936-245.504 245.536-245.504 135.568 0 245.472 109.904 245.472 245.504 0 135.568-109.904 245.504-245.472 245.504zM256-4.688c-120.464 0-218.496 99.728-218.496 222.288s98.032 222.288 218.496 222.288c120.496 0 218.496-99.712 218.496-222.288s-98-222.288-218.496-222.288zM256 415.888c-107.248 0-194.496-88.976-194.496-198.288s87.248-198.288 194.496-198.288 194.496 88.976 194.496 198.288-87.248 198.288-194.496 198.288zM351.696 74.784c36.944 106.592-29.024 176.816-29.024 176.816-7.632-53.408-24.32-76.448-24.32-76.448-37.008 19.792-39.68 97.776-39.68 97.776-43.856-61.984-2.272-155.008-2.272-155.008-19.072 0-56.4 27.008-56.4 27.008-3.392-60.064 43.568-89.696 73.616-97.408-13.44-2.592-23.936-2.096-42.944 2.736-8.272 2.096-156 54.672-72 210.672 0 0 15.712-51.472 42.416-70.544 0 0-26.704 53.408 15.248 114.432 41.968 61.024 45.776 80.112 45.776 80.112s26.704-34.336 30.512-103.008c0 0 18.336 23.712 26.704 57.216 0.64 2.56 124.048-139.12 32.368-264.352z" />
<glyph unicode="&#xe632;" d="M256.032 463.104c-135.6 0-245.536-109.936-245.536-245.504 0-135.6 109.936-245.504 245.536-245.504 135.552 0 245.456 109.904 245.456 245.504 0 135.568-109.904 245.504-245.456 245.504zM256-4.688c-120.464 0-218.496 99.728-218.496 222.288s98.032 222.288 218.496 222.288c120.48 0 218.48-99.712 218.48-222.288s-98-222.288-218.48-222.288zM268.608 248.4c0-8.377-6.791-15.168-15.168-15.168s-15.168 6.791-15.168 15.168c0 8.377 6.791 15.168 15.168 15.168s15.168-6.791 15.168-15.168zM203.12 204.8c0-26.262-21.29-47.552-47.552-47.552s-47.552 21.29-47.552 47.552c0 26.262 21.29 47.552 47.552 47.552s47.552-21.29 47.552-47.552zM402.016 204.8c0-26.262-21.29-47.552-47.552-47.552s-47.552 21.29-47.552 47.552c0 26.262 21.29 47.552 47.552 47.552s47.552-21.29 47.552-47.552zM256 415.888c-107.248 0-194.496-88.976-194.496-198.288s87.248-198.288 194.496-198.288c107.232 0 194.48 88.976 194.48 198.288s-87.248 198.288-194.48 198.288zM297.808 328.224c10.256 0 15.248-1.888 21.52-9.008-24.544-0.608-42-16.512-54.256-35.808-1.072 3.264-1.728 6.72-1.728 10.352 0 31.504 15.44 34.464 34.464 34.464zM212.24 328.224c19.040 0 34.464-1.776 34.464-34.464 0-4.048-0.928-7.824-2.256-11.424-11.68 20.192-29.744 37.376-54.128 37.824 6.288 6.928 11.824 8.064 21.92 8.064zM354.464 131.904c-35.104 0-64.416 24.832-71.328 57.92l-0.384 0.336-6.432 47.008c-4.432-8.128-12.976-13.712-22.88-13.712-8.224 0-15.424 3.92-20.208 9.856l-5.936-43.136-0.368-0.336c-6.928-33.088-36.224-57.92-71.344-57.92-40.272 0-72.912 32.656-72.912 72.928 0 27.872 15.664 52.080 38.656 64.336l30.928 22.592c1.776 1.456 3.616 2.864 5.584 4.080l0.016 0.016c0.384 0.24 0.816 0.416 1.232 0.656 8.032 4.144 17.024 6.608 26.64 6.608 23.136 0 43.232-13.6 53.12-33.44 0.336-0.656 1.472 2.256 5.44 4.336 2.848 1.040 5.92 1.712 9.168 1.712 5.2 0 10.016-1.552 14.096-4.176 1.568-1.424 2.256-2.592 2.48-2.16 10.288 19.808 31.152 33.408 55.264 33.408 6.416 0 12.608-1.056 18.416-2.896 2.976-1.12 5.84-2.416 8.512-4.064v-0.016c1.968-1.216 3.792-2.624 5.584-4.080l30.928-22.592c23.008-12.272 38.672-36.464 38.672-64.336-0.016-40.272-32.656-72.928-72.944-72.928z" />
<glyph unicode="&#xe633;" d="M256.032 463.12c-135.6 0-245.536-109.936-245.536-245.52 0-135.6 109.936-245.504 245.536-245.504 135.568 0 245.472 109.904 245.472 245.504 0 135.584-109.904 245.52-245.472 245.52zM256-4.688c-120.464 0-218.496 99.728-218.496 222.288 0 122.576 98.032 222.304 218.496 222.304 120.496 0 218.496-99.712 218.496-222.304 0-122.56-98-222.288-218.496-222.288zM277.568 214.864c0-10.745-8.711-19.456-19.456-19.456s-19.456 8.711-19.456 19.456c0 10.745 8.71 19.456 19.456 19.456s19.456-8.71 19.456-19.456zM180.96 291.984l31.728-73.088 41.376 41.376zM256 415.904c-107.248 0-194.496-88.976-194.496-198.304 0-109.312 87.248-198.288 194.496-198.288s194.496 88.976 194.496 198.288c0 109.328-87.248 198.304-194.496 198.304zM211.52 168.256l-71.408 164.624 164.608-71.44 71.408-164.624-164.608 71.44z" />
<glyph unicode="&#xe634;" d="M256.032 463.12c-135.6 0-245.536-109.936-245.536-245.52 0-135.6 109.936-245.504 245.536-245.504 135.568 0 245.472 109.904 245.472 245.504 0 135.584-109.904 245.52-245.472 245.52zM256-4.688c-120.464 0-218.496 99.728-218.496 222.288 0 122.576 98.032 222.304 218.496 222.304 120.496 0 218.496-99.712 218.496-222.304 0-122.56-98-222.288-218.496-222.288zM256 415.904c-107.248 0-194.496-88.976-194.496-198.304 0-109.312 87.248-198.288 194.496-198.288s194.496 88.976 194.496 198.288c0 109.328-87.248 198.304-194.496 198.304zM156.288 110.944c-18.096 17.072-32.16 38.896-39.76 64.448-7.408 24.848-7.84 50.064-2.528 73.696l66.032-19.776c-1.76-11.136-1.2-22.816 2.224-34.336 3.6-12.032 9.856-22.48 17.92-31.024l-43.888-53.008zM148 314.912c17.44 19.408 40.112 34.528 66.944 42.528 25.296 7.536 51.008 7.792 75.008 2.176l-20.352-65.808c-11.344 1.904-23.296 1.408-35.072-2.112-13.28-3.952-24.688-11.2-33.664-20.528l-52.864 43.744zM298.544 76.96c-26.080-7.776-52.624-7.792-77.28-1.616l19.712 65.712c12.208-2.544 25.168-2.192 37.968 1.648 11.248 3.344 21.104 9.072 29.328 16.384l52.8-44.464c-16.752-17.088-37.936-30.336-62.528-37.664zM332.72 200.688c2.688 12.416 2.4 25.664-1.488 38.72-3.696 12.512-10.368 23.376-18.912 32.096l44.256 52.528c18.368-17.168 32.688-39.184 40.4-65.024 7.92-26.576 7.76-53.584 1.232-78.576l-65.488 20.256z" />
<glyph unicode="&#xe635;" d="M256.032 463.12c-135.6 0-245.536-109.936-245.536-245.52 0-135.6 109.936-245.504 245.536-245.504 135.568 0 245.472 109.904 245.472 245.504 0 135.584-109.904 245.52-245.472 245.52zM256-4.688c-120.464 0-218.496 99.728-218.496 222.288 0 122.576 98.032 222.304 218.496 222.304 120.496 0 218.496-99.712 218.496-222.304 0-122.56-98-222.288-218.496-222.288zM239.984 252.608h24v-18h-24v18zM287.984 217.936h24v-18h-24v18zM287.984 252.608h24v-18h-24v18zM335.984 252.608h24v-18h-24v18zM191.984 217.936h24v-18h-24v18zM256 415.904c-107.248 0-194.496-88.976-194.496-198.304 0-109.312 87.248-198.288 194.496-198.288s194.496 88.976 194.496 198.288c0 109.328-87.248 198.304-194.496 198.304zM361.008 91.344c-15.92 0-29.152 10.944-32.976 25.664h-91.072c-3.824-14.72-17.088-25.664-32.992-25.664-18.896 0-34.224 15.344-34.224 34.224 0 11.344 5.584 21.312 14.064 27.536l-54.512 127.152h-18.624l-9.328 23.328h46.656l13.776-32.272h256.912c-22.656-82.416-76.224-91.36-218.432-91.36l10.896-20.976c12.608-2.672 22.528-12.336 25.792-24.72h91.152c3.856 14.672 17.056 25.504 32.944 25.504 18.912 0 34.192-15.28 34.192-34.208-0.032-18.864-15.312-34.208-34.224-34.208zM191.984 252.608h24v-18h-24v18zM239.984 217.936h24v-18h-24v18z" />
<glyph unicode="&#xe636;" d="M256.032 463.104c-135.6 0-245.536-109.936-245.536-245.504 0-135.6 109.936-245.504 245.536-245.504 135.568 0 245.472 109.904 245.472 245.504 0 135.568-109.904 245.504-245.472 245.504zM256-4.688c-120.464 0-218.496 99.728-218.496 222.288s98.032 222.288 218.496 222.288c120.496 0 218.496-99.712 218.496-222.288s-98-222.288-218.496-222.288zM306.464 218.24c0-10.021-8.123-18.144-18.144-18.144s-18.144 8.123-18.144 18.144c0 10.020 8.123 18.144 18.144 18.144s18.144-8.124 18.144-18.144zM135.104 237.072h111.552v-61.824h-111.552v61.824zM256 415.888c-107.248 0-194.496-88.976-194.496-198.288s87.248-198.288 194.496-198.288 194.496 88.976 194.496 198.288-87.248 198.288-194.496 198.288zM330.768 154.016c-4.784-14.192-17.968-24.528-33.776-24.528h-161.632c-19.84 0-35.936 16.080-35.936 35.92v46.976c-5.664-0.352-11.6-0.72-19.024-1.152-0.048 21.856 2.656 33.024 12.688 52.448 6.608-3.92 11.84-7.008 16.864-10.016 6.512 6.512 15.504 10.544 25.424 10.544h4.208c-10.864 7.664-17.984 20.24-17.984 34.544 0 23.392 18.944 42.352 42.352 42.352s42.368-18.976 42.368-42.352c0-14.32-7.12-26.896-17.984-34.544h56.352c-15.696 9.696-26.272 26.944-26.272 46.768 0 30.432 24.656 55.088 55.088 55.088s55.104-24.656 55.104-55.088c0-20.128-10.912-37.568-27.008-47.168 14.48-1.904 26.096-12.448 29.776-26.336 3.616-16.944 6.416-45.232-0.608-83.456zM351.216 145.936c8.224 43.392 5.488 76.080 1.248 96.992 17.008 6.112 32.944 11.84 55.296 19.904 11.264-53.984 11.264-83.28 0-137.28-22.928 8.256-39.104 14.064-56.544 20.384z" />
<glyph unicode="&#xe637;" d="M256.032 463.104c-135.6 0-245.536-109.936-245.536-245.504 0-135.6 109.936-245.504 245.536-245.504 135.568 0 245.472 109.904 245.472 245.504 0 135.568-109.904 245.504-245.472 245.504zM256-4.688c-120.464 0-218.496 99.728-218.496 222.288s98.032 222.288 218.496 222.288c120.496 0 218.496-99.712 218.496-222.288s-98-222.288-218.496-222.288zM197.696 325.856h36.56v-19.504h-36.56v19.504zM256.048 296.608c-46.576 0-84.464-37.888-84.464-84.464 0-46.56 37.888-84.464 84.464-84.464s84.448 37.904 84.448 84.464c0 46.576-37.872 84.464-84.448 84.464zM256.048 160.464c-28.496 0-51.696 23.2-51.696 51.68s23.2 51.68 51.696 51.68c28.464 0 51.664-23.2 51.664-51.68s-23.2-51.68-51.664-51.68zM256 415.888c-107.248 0-194.496-88.976-194.496-198.288s87.248-198.288 194.496-198.288 194.496 88.976 194.496 198.288-87.248 198.288-194.496 198.288zM99.248 149.856c-2.512 6.176-3.952 12.912-3.952 20v83.024c0 6.272 1.264 12.192 3.28 17.76 16.128-0.608 29.12-16.192 29.12-35.36v-50.192c0-18.864-12.624-34.224-28.448-35.232zM354.16 116.912h-196.224c-16.832 0-31.632 7.984-41.312 20.208 18.576 5.008 32.512 24.576 32.512 47.984v50.192c0 24.096-14.72 44.112-34.112 48.384 9.616 13.36 25.168 22.144 42.912 22.144h16.928v9.264c0 15.696 12.72 28.432 28.432 28.432h105.504c15.712 0 28.432-12.736 28.432-28.432v-9.264h16.928c17.696 0 33.28-8.784 42.88-22.128-19.44-4.24-34.208-24.272-34.208-48.4v-50.192c0-23.44 13.968-43.040 32.592-48.016-9.696-12.208-24.464-20.176-41.264-20.176zM412.816 149.84c-15.872 0.96-28.544 16.336-28.544 35.264v50.192c0 19.232 13.040 34.816 29.232 35.376 2.016-5.584 3.28-11.52 3.28-17.776v-83.024c0-7.12-1.44-13.872-3.968-20.032z" />
<glyph unicode="&#xe638;" d="M256.016 463.104c-135.584 0-245.536-109.936-245.536-245.504 0-135.6 109.952-245.504 245.536-245.504 135.568 0 245.472 109.904 245.472 245.504 0 135.568-109.904 245.504-245.472 245.504zM255.984-4.688c-120.448 0-218.496 99.728-218.496 222.288s98.048 222.288 218.496 222.288c120.496 0 218.496-99.728 218.496-222.288s-98-222.288-218.496-222.288zM236.592 303.44c95.488 26.736 123.104 58.288 131.008 76.288-31.632 22.704-70.080 36.16-111.616 36.16-107.232 0-194.48-88.976-194.48-198.288 0-65.376 31.328-123.28 79.36-159.44-36.032 73.104-48.24 204.96 95.728 245.28zM374.368 374.56c46.032-264.864-185.104-253.12-185.104-253.12-34.608 51.488 103.776 145.952 103.776 145.952-209.52-84.464-138.464-200.32-113.536-232.048 23.488-10.304 49.328-16.032 76.48-16.032 107.248 0 194.496 88.976 194.496 198.288 0 63.888-29.936 120.672-76.112 156.96z" />
<glyph unicode="&#xe639;" d="M256.016 463.104c-135.584 0-245.536-109.936-245.536-245.504 0-135.6 109.952-245.504 245.536-245.504 135.568 0 245.472 109.904 245.472 245.504 0 135.568-109.904 245.504-245.472 245.504zM255.984-4.688c-120.448 0-218.496 99.728-218.496 222.288s98.048 222.288 218.496 222.288c120.496 0 218.496-99.728 218.496-222.288s-98-222.288-218.496-222.288zM296.768 358.096c-23.28-7.056-29.504-54.544-13.872-106.048 15.648-51.536 47.168-87.568 70.464-80.512 23.264 7.056 29.504 54.576 13.856 106.096-15.616 51.52-47.168 87.52-70.448 80.464zM326.64 222.272c-9.536-2.896-22.432 11.856-28.848 32.96-6.384 21.072-3.84 40.496 5.68 43.392s22.432-11.84 28.832-32.928c6.416-21.104 3.856-40.528-5.664-43.424zM255.984 415.888c-107.232 0-194.48-88.976-194.48-198.288s87.248-198.288 194.48-198.288c107.248 0 194.496 88.976 194.496 198.288s-87.248 198.288-194.496 198.288zM159.664 260.944c4.688 3.664 24 24 43.248 43.056-29.92-69.008 3.296-118.256 25.664-141.376-12.48 0.416-30.016 1.312-48.24 2.32-12 8.672-42.672 54-20.672 96zM120.336 167.28c0 0-18.656 23.344-8.656 49.344l29.984 29.984c0 0-14.656-39.312 17.344-81.312l-38.672 1.984zM233.088 37.52c-26.32-2.752-16.624 9.12-33.936 53.392-10.816 27.664-19.84 42.944-25.552 50.176-1.152 1.472-2.72 3.392-2.272 4.8 0.464 1.424 13.744 0.176 30.944-0.144 17.2-0.336 26-0.704 26-0.704 3.008-1.296 2.416-4.592 2.352-5.824-4.192-55.824 28.24-99.040 2.464-101.696zM388.736 195.008c-5.072-34.064-28.864-39.808-39.072-40.064-27.328-0.688-64.656 2.656-102.128 7.184-64.336 76.56-34.464 140.72-13.872 166.816 14.016 14.656 18.688 18.656 36.016 31.312 8.288 6.048 35.984 28.688 67.92-1.424 41.936-39.536 60.384-109.888 51.136-163.824z" />
<glyph unicode="&#xe63a;" d="M256.016 463.104c-135.584 0-245.536-109.936-245.536-245.504 0-135.6 109.952-245.504 245.536-245.504 135.568 0 245.472 109.904 245.472 245.504 0 135.568-109.904 245.504-245.472 245.504zM255.984-4.688c-120.448 0-218.496 99.728-218.496 222.288s98.048 222.288 218.496 222.288c120.496 0 218.496-99.728 218.496-222.288s-98-222.288-218.496-222.288zM255.984 415.888c-107.232 0-194.48-88.976-194.48-198.288s87.248-198.288 194.48-198.288c107.248 0 194.496 88.976 194.496 198.288s-87.248 198.288-194.496 198.288zM195.68 113.76l-10.368 141.712 18.144 1.136c1.984-31.936 8.128-130.688 8.832-141.808l-16.608-1.040zM315.2 113.984l-19.6 1.424c2.336 31.952 9.568 130.608 10.368 141.712l19.6-1.424-10.368-141.712zM389.296 167.008c-2.304-31.248-29.84-54.656-62.096-53.648l10.304 140.656 0.528 11.328c0 39.472-36.896 71.456-82.416 71.456s-82.432-31.984-82.432-71.456l0.56-16.144 9.968-136.208-0.32-0.016c-33.312-2.080-61.92 22.304-63.92 54.432l-1.6 25.456c-1.472 23.664 11.952 44.832 32.4 55.2v20.256c0 49.856 46.656 90.304 104.208 90.304s104.192-40.432 104.192-90.304v-20.176c20.736-10.48 34.256-31.872 32.496-55.712l-1.872-25.424z" />
<glyph unicode="&#xe63b;" d="M256.016 463.104c-135.584 0-245.536-109.936-245.536-245.504 0-135.6 109.952-245.504 245.536-245.504 135.568 0 245.472 109.904 245.472 245.504 0 135.568-109.904 245.504-245.472 245.504zM255.984-4.688c-120.448 0-218.496 99.728-218.496 222.288s98.048 222.288 218.496 222.288c120.496 0 218.496-99.728 218.496-222.288s-98-222.288-218.496-222.288zM101.984 208.896c0 19.568 15.856 35.408 35.408 35.408h8.896v124.672h138.432l72.88-57.008v-67.664h14.256c19.536 0 35.392-15.84 35.392-35.408v-115.68c27.008 34.064 43.248 77.312 43.248 124.384 0 109.312-87.248 198.288-194.496 198.288s-194.496-88.976-194.496-198.288c0-45.392 15.216-87.152 40.48-120.608v111.904zM160.864 357.568v-113.264h182.144v59.12h-69.232v54.144zM382 202.304c0-10.675-8.654-19.328-19.328-19.328s-19.328 8.654-19.328 19.328c0 10.675 8.654 19.328 19.328 19.328s19.328-8.653 19.328-19.328zM374.656 49.632l-26.672 76.672v39.216h-186v-41.152h0.32l-26.304-74.736h238.656zM218.656 100.608h119.328l2.992-10.64h-125.008l2.688 10.64zM189.984 77.28h156l4.336-11.328h-164l3.664 11.328z" />
<glyph unicode="&#xe63c;" d="M256.016 463.104c-135.584 0-245.536-109.936-245.536-245.504 0-135.6 109.952-245.504 245.536-245.504 135.568 0 245.472 109.904 245.472 245.504 0 135.568-109.904 245.504-245.472 245.504zM255.984-4.688c-120.448 0-218.496 99.728-218.496 222.288s98.048 222.288 218.496 222.288c120.496 0 218.496-99.728 218.496-222.288s-98-222.288-218.496-222.288zM255.984 415.888c-107.232 0-194.48-88.976-194.48-198.288s87.248-198.288 194.48-198.288c107.248 0 194.496 88.976 194.496 198.288s-87.248 198.288-194.496 198.288zM390 181.6h-98v-98h-72v98h-98v72h98v98h72v-98h98v-72z" />
<glyph unicode="&#xe63d;" d="M256.016 463.104c-135.584 0-245.536-109.936-245.536-245.504 0-135.6 109.952-245.504 245.536-245.504 135.568 0 245.472 109.904 245.472 245.504 0 135.568-109.904 245.504-245.472 245.504zM255.984-4.688c-120.448 0-218.496 99.728-218.496 222.288s98.048 222.288 218.496 222.288c120.496 0 218.496-99.728 218.496-222.288s-98-222.288-218.496-222.288zM227.92 329.808c-23.76-1.44-43.184-11.536-55.024-23.296-12.752-12.768-24.432-35.776-24.272-59.712 0.24-26 11.008-45.888 25.136-59.696 50.688-49.216 143.28-13.296 141.824 61.536-1.040 49.36-39.232 83.968-87.664 81.168zM276.896 234.048h-85.584c-9.456 0-17.136 7.696-17.136 17.104 0 9.472 7.68 17.152 17.136 17.152h85.584c9.456 0 17.088-7.68 17.088-17.152 0-9.392-7.648-17.104-17.088-17.104zM361.264 119.024c-18.048 12.24-39.584 19.136-41.952 45.68-12.496-8.512-22.352-18.736-36.4-25.184-82.384-38.048-169.488 25.664-169.712 107.264-0.16 61.312 50.336 119.696 115.664 119.36 88.608-0.432 147.968-85.936 110.048-170.656 23.808 8.128 43.024-12.816 59.664-24.256 20.64-14.208 26.064-16.416 40.512-19.904 7.248 20.752 11.408 43.008 11.408 66.272 0 109.312-87.248 198.288-194.496 198.288s-194.496-88.976-194.496-198.288 87.248-198.288 194.48-198.288c56.704 0 107.664 25.024 143.248 64.624-8.496 15.088-16.912 20.8-37.968 35.088z" />
<glyph unicode="&#xe63e;" d="M256.016 463.104c-135.584 0-245.536-109.936-245.536-245.504 0-135.6 109.952-245.504 245.536-245.504 135.568 0 245.472 109.904 245.472 245.504 0 135.568-109.904 245.504-245.472 245.504zM255.984-4.688c-120.448 0-218.496 99.728-218.496 222.288s98.048 222.288 218.496 222.288c120.496 0 218.496-99.728 218.496-222.288s-98-222.288-218.496-222.288zM361.264 119.024c-18.048 12.24-39.584 19.136-41.952 45.68-12.496-8.512-22.352-18.736-36.4-25.184-82.384-38.048-169.488 25.664-169.712 107.264-0.16 61.312 50.336 119.696 115.664 119.36 88.608-0.432 147.968-85.936 110.048-170.656 23.808 8.128 43.024-12.816 59.664-24.256 20.64-14.208 26.064-16.416 40.512-19.904 7.248 20.752 11.408 43.008 11.408 66.272 0 109.312-87.248 198.288-194.496 198.288s-194.496-88.976-194.496-198.288 87.248-198.288 194.48-198.288c56.704 0 107.664 25.024 143.248 64.624-8.496 15.088-16.912 20.8-37.968 35.088zM227.92 329.808c-23.76-1.44-43.184-11.536-55.024-23.296-12.752-12.768-24.432-35.776-24.272-59.712 0.24-26 11.008-45.888 25.136-59.696 50.688-49.216 143.28-13.296 141.824 61.536-1.040 49.36-39.232 83.968-87.664 81.168zM276.896 234.048h-25.664v-31.344c0-9.488-7.664-17.136-17.136-17.136-9.408 0-17.12 7.664-17.12 17.136v31.344h-25.664c-9.456 0-17.136 7.696-17.136 17.104 0 9.472 7.68 17.152 17.136 17.152h25.664v19.936c0 9.456 7.712 17.104 17.12 17.104 9.472 0 17.136-7.664 17.136-17.104v-19.936h25.664c9.456 0 17.088-7.68 17.088-17.152 0-9.392-7.648-17.104-17.088-17.104z" />
<glyph unicode="&#xe63f;" d="M256.016 463.104c-135.584 0-245.536-109.936-245.536-245.504 0-135.6 109.952-245.504 245.536-245.504 135.568 0 245.472 109.904 245.472 245.504 0 135.568-109.904 245.504-245.472 245.504zM255.984-4.688c-120.448 0-218.496 99.728-218.496 222.288s98.048 222.288 218.496 222.288c120.496 0 218.496-99.728 218.496-222.288s-98-222.288-218.496-222.288zM255.984 415.888c-107.232 0-194.48-88.976-194.48-198.288s87.248-198.288 194.48-198.288c107.248 0 194.496 88.976 194.496 198.288s-87.248 198.288-194.496 198.288zM256 62.016c-20.56 0-37.248 16.672-37.248 37.248 0 20.544 16.688 37.216 37.248 37.216 20.528 0 37.248-16.672 37.248-37.216 0-20.576-16.72-37.248-37.248-37.248zM302.496 311.712l-14.592-116.736c0-17.616-14.32-31.888-31.904-31.888-17.632 0-31.904 14.288-31.904 31.888l-14.592 116.736c-0.848 3.52-1.344 7.136-1.344 10.912 0 26.432 21.408 47.856 47.84 47.856s47.84-21.424 47.84-47.856c0-3.776-0.496-7.392-1.344-10.912z" />
<glyph unicode="&#xe640;" d="M256.032 463.104c-135.6 0-245.536-109.936-245.536-245.504 0-135.6 109.936-245.504 245.536-245.504 135.552 0 245.456 109.904 245.456 245.504 0 135.568-109.904 245.504-245.456 245.504zM256-4.688c-120.464 0-218.496 99.728-218.496 222.288s98.032 222.288 218.496 222.288c120.48 0 218.48-99.712 218.48-222.288s-98-222.288-218.48-222.288zM204.112 272.96c0-12.186-9.879-22.064-22.064-22.064s-22.064 9.878-22.064 22.064c0 12.185 9.879 22.064 22.064 22.064s22.064-9.879 22.064-22.064zM262.048 272.96c0-12.186-9.879-22.064-22.064-22.064s-22.064 9.878-22.064 22.064c0 12.185 9.879 22.064 22.064 22.064s22.064-9.879 22.064-22.064zM284.352 255.952c3.76-3.008 8.336-5.056 13.568-5.056 7.36 0 13.568 3.84 17.584 9.392 2.624 3.648 4.48 7.84 4.48 12.672 0 12.208-9.872 22.064-22.064 22.064-12.208 0-22.096-9.856-22.096-22.064 0-6 2.624-11.12 6.528-15.024 0.656-0.688 1.28-1.392 2-1.984zM256 415.888c-107.248 0-194.496-88.976-194.496-198.288s87.248-198.288 194.496-198.288c107.232 0 194.48 88.976 194.48 198.288s-87.248 198.288-194.48 198.288zM197.568 192.816c-3.28 0.512-6.576 1.024-9.792 1.696l-1.968 0.4-1.616-1.248c-15.616-12.272-33.936-18.48-54.464-18.48-6.848 0-13.2 0.704-18.752 1.696 21.408 5.872 26.512 22.32 27.488 32.928l0.272 2.72-2.352 1.424c-25.872 15.536-40.112 36.080-40.112 57.856 0 45.088 60.976 81.792 135.92 81.792s135.936-36.704 135.936-81.792c0-6.256-1.2-12.32-3.408-18.16-0.16 0.064-0.336 0.112-0.48 0.176-14.704-36.56-69.312-63.808-134.368-63.808-10.912 0-21.696 0.816-32.256 2.336-0.032 0.16-0.032 0.304-0.048 0.464zM343.776 131.312c-10.8-2.272-22.4-3.504-34.448-3.504-50.224 0-92.336 21.328-103.664 50.032 9.584-1.216 19.312-1.888 29.152-1.888 67.84 0 124.896 29.376 140.448 68.88 24.8-12 40.736-30.576 40.736-51.472 0-18.352-12.304-34.96-32.096-46.864 1.008-10.928 7.6-25.2 35.6-23.552 0.016 0.016-40.944-18.96-75.728 8.368z" />
<glyph unicode="&#xe641;" d="M256.016 463.104c-135.584 0-245.536-109.936-245.536-245.504 0-135.6 109.952-245.504 245.536-245.504 135.568 0 245.472 109.904 245.472 245.504 0 135.568-109.904 245.504-245.472 245.504zM255.984-4.688c-120.448 0-218.496 99.728-218.496 222.288s98.048 222.288 218.496 222.288c120.496 0 218.496-99.728 218.496-222.288s-98-222.288-218.496-222.288zM255.984 415.888c-107.232 0-194.48-88.976-194.48-198.288s87.248-198.288 194.48-198.288c107.248 0 194.496 88.976 194.496 198.288s-87.248 198.288-194.496 198.288zM253.232 256.128c25.344-5.216 41.632-30.208 36.352-55.808l-21.632 4.224c3.168 15.456-5.936 26.768-19.184 29.488l4.464 22.096zM334.704 94.176c-11.808-13.84-25.6-30.048-25.6-30.048s-29.92-33.632-85.232 32.512c-26.592 31.808-43.568 54.336-52.832 69.776l-0.064-0.016c-11.648 17.696-21.088 36.736-38.752 74.592-36.48 78.128 6.656 90.992 6.656 90.992s20.528 5.632 38.064 10.432c17.52 4.816 32.544-24.512 32.544-24.512s26.464-40.752 12.768-54.512c-14.832-14.912-30.976-20.544-28.56-35.632 1.328-8.336 8.352-23.68 16.912-38.080l0.016 0.032c10.080-16.064 20.224-26.96 27.328-31.776 12.64-8.576 24.608 3.648 44.384 10.752 18.272 6.592 43.952-34.656 43.952-34.656s20.192-26.048 8.416-39.856zM337.584 190.448l-27.824 5.712c7.696 37.424-16.080 73.984-53.136 81.616l5.776 28.112c52.416-10.784 86.064-62.48 75.184-115.44zM392.944 179.056l-29.952 6.176c13.744 66.864-28.704 132.096-94.864 145.696l6.24 30.256c82.672-17.008 135.76-98.544 118.576-182.128z" />
<glyph unicode="&#xe642;" d="M256.032 463.104c-135.6 0-245.536-109.936-245.536-245.504 0-135.6 109.936-245.504 245.536-245.504 135.568 0 245.472 109.904 245.472 245.504 0 135.568-109.904 245.504-245.472 245.504zM256-4.688c-120.464 0-218.496 99.728-218.496 222.288s98.032 222.288 218.496 222.288c120.496 0 218.496-99.712 218.496-222.288s-98-222.288-218.496-222.288zM256 415.888c-107.248 0-194.496-88.976-194.496-198.288 0-49.248 17.808-94.272 47.088-128.992-3.536 47.232-8.592 108.656-8.592 108.656 0 12.608 6.832 22.896 15.28 22.896h47.68c-9.648-6.128-16.208-19.152-16.176-35.136 3.36-41.168 8.080-96.928 11.152-138.368 5.856-3.504 11.952-6.624 18.176-9.52-4.080 59.344-9.376 144.352-9.728 148.704 0 11.136 7.136 18.576 15.536 18.576l198.608-0.592c8.96 0 16.208-10.912 16.208-24.32 0 0-4.848-61.472-7.92-106.368 37.872 36.224 61.696 87.504 61.696 144.464-0.016 109.312-87.264 198.288-194.512 198.288zM204.752 236.4c-31.808 0-57.632 25.856-57.632 57.648 0 31.824 25.808 57.616 57.632 57.616 10.704 0 20.592-3.104 29.168-8.208-17.296-14.864-28.512-36.672-28.512-61.264 0-16.24 4.96-31.248 13.312-43.872-4.512-1.136-9.12-1.92-13.968-1.92zM286.688 221.040c-16.72 0-31.792 6.72-42.848 17.616-0.336 0.32-0.64 0.688-0.96 1.008-2.032 2.096-3.824 4.336-5.488 6.672-0.016 0-0.032-0.032-0.048-0.048-7.664 10.096-12.336 22.4-12.336 35.904 0 19.712 9.744 37.056 24.64 48.336 0.032-0.032 0.048-0.048 0.064-0.080 10.304 7.904 22.976 12.832 36.976 12.832 33.728 0 61.056-27.36 61.056-61.104 0-33.696-27.328-61.136-61.056-61.136zM369.488 137.28c0 19.904-22.368 22.528-22.368 22.528 0.144-1.824 4.432-73.504 6.8-113.264 5.168 3.088 10.208 6.4 15.056 9.952 0.080 30.736 0.512 68.88 0.512 80.784zM205.008 139.84c0-8.816 0.016-50.72-0.176-87.472-0.048-9.232-0.112-18-0.192-25.92 4.48-1.264 9.024-2.336 13.632-3.28 2.496 44.88 7.424 134.768 7.6 136.656 0 0-20.864 0.752-20.864-19.984z" />
<glyph unicode="&#xe643;" d="M339.168 145.456c0 20.816-23.456 23.584-23.456 23.584 0.192-2.032 5.712-94.512 8.256-136.976 4.896 1.856 9.664 3.904 14.336 6.144 0.176 39.936 0.864 93.952 0.864 107.248zM256 415.888c-107.248 0-194.496-88.976-194.496-198.288 0-68.144 33.92-128.352 85.44-164.080-3.888 53.216-10.672 136.128-10.672 136.128 0 14.016 7.584 25.424 16.944 25.424h197.52c9.344 0 16.944-11.408 16.944-25.424 0 0-6.88-88.032-10.416-141.024 55.824 34.896 93.264 97.504 93.264 168.992-0.032 109.296-87.28 198.272-194.528 198.272zM252.496 233.088c-35.296 0-63.968 28.704-63.968 63.968 0 35.312 28.672 63.92 63.968 63.92s63.904-28.608 63.904-63.92c0-35.264-28.608-63.968-63.904-63.968zM167.056 148.112c0-10.432 0.016-65.328-0.272-106.512 4.816-2.544 9.696-4.976 14.72-7.104 2.384 43.584 7.2 132.56 7.344 134.544 0.016 0-21.792 0.768-21.792-20.928zM256.032 463.104c-135.6 0-245.536-109.936-245.536-245.504 0-135.6 109.936-245.504 245.536-245.504 135.568 0 245.472 109.904 245.472 245.504 0 135.568-109.904 245.504-245.472 245.504zM256-4.688c-120.464 0-218.496 99.728-218.496 222.288s98.032 222.288 218.496 222.288c120.496 0 218.496-99.712 218.496-222.288s-98-222.288-218.496-222.288z" />
<glyph unicode="&#xe644;" d="M256.016 463.104c-135.584 0-245.536-109.936-245.536-245.504 0-135.6 109.952-245.504 245.536-245.504 135.568 0 245.472 109.904 245.472 245.504 0 135.568-109.904 245.504-245.472 245.504zM255.984-4.688c-120.448 0-218.496 99.728-218.496 222.288s98.048 222.288 218.496 222.288c120.496 0 218.496-99.728 218.496-222.288s-98-222.288-218.496-222.288zM139.664 226h86.048v-19.888h-86.048v19.888zM139.664 184.56h63.168v-19.888h-63.168v19.888zM255.984 415.888c-107.232 0-194.48-88.976-194.48-198.288s87.248-198.288 194.48-198.288c107.248 0 194.496 88.976 194.496 198.288s-87.248 198.288-194.496 198.288zM282.016 118.768h-8.816c0.112 20.464 0.096 42.896 0.096 47.728 0 11.888 11.952 11.488 11.952 11.488-0.064-0.896-1.872-34.128-3.232-59.216zM367.28 118.768h-8.896c-1.504 25.040-3.488 58.304-3.568 59.216 0 0 12.864-1.536 12.864-12.96 0-5.936-0.224-26.848-0.4-46.256zM383.008 118.768h-4.944c2.032 29.216 5.248 70.512 5.248 70.512 0 7.68-4.176 13.92-9.296 13.92h-108.336c-5.12 0-9.28-6.24-9.28-13.92 0 0 3.376-41.36 5.552-70.512h-134.432c-12.64 0-22.88 10.272-22.88 22.896v148.688c0 12.64 10.24 22.896 22.88 22.896h255.488c12.624 0 22.88-10.256 22.88-22.896v-148.688c-0.016-12.624-10.256-22.896-22.88-22.896zM139.664 267.488h86.048v-19.904h-86.048v19.904zM355.2 248.176c0-19.361-15.695-35.056-35.056-35.056s-35.056 15.695-35.056 35.056c0 19.361 15.695 35.056 35.056 35.056s35.056-15.695 35.056-35.056z" />
<glyph unicode="&#xe645;" d="M256.016 463.104c-135.584 0-245.536-109.936-245.536-245.504 0-135.6 109.952-245.504 245.536-245.504 135.568 0 245.472 109.904 245.472 245.504 0 135.568-109.904 245.504-245.472 245.504zM255.984-4.688c-120.448 0-218.496 99.728-218.496 222.288s98.048 222.288 218.496 222.288c120.496 0 218.496-99.728 218.496-222.288s-98-222.288-218.496-222.288zM266 291.344h29.552v-29.552h-29.552v29.552zM307.488 291.344h29.552v-29.552h-29.552v29.552zM255.984 415.888c-107.232 0-194.48-88.976-194.48-198.288s87.248-198.288 194.48-198.288c107.248 0 194.496 88.976 194.496 198.288s-87.248 198.288-194.496 198.288zM404.656 150.416c0-16.48-13.376-29.856-29.856-29.856h-238.944c-16.48 0-29.856 13.376-29.856 29.856v3.728h298.656v-3.728zM106 200.816v84c0 16.48 13.376 29.856 29.856 29.856h238.944c16.48 0 29.856-13.376 29.856-29.856v-84h-298.656zM348.992 291.344h29.552v-29.552h-29.552v29.552z" />
</font>
</defs>
</svg>
